M48
;DRILL file {kicad (2014-12-04 BZR 5312)-product} date 2/1/2015 3:35:55 PM
;FORMAT={-:-/ absolute / inch / decimal}
FMAT,2
INCH,TZ
T1C0.013
T2C0.020
T3C0.022
T4C0.025
T5C0.030
T6C0.032
T7C0.032
T8C0.039
T9C0.040
T10C0.045
T11C0.050
T12C0.059
%
G90
G05
M72
T1
X2.655Y-2.17
X2.66Y-2.22
X2.685Y-2.08
X2.7Y-2.45
X2.7252Y-2.0052
X2.77Y-2.69
X2.78Y-2.28
X2.79Y-1.45
X2.7901Y-2.1399
X2.815Y-2.37
X2.84Y-0.95
X2.84Y-1.28
X2.855Y-2.635
X2.92Y-1.29
X2.9488Y-2.48
X2.95Y-1.35
X2.96Y-1.7185
X2.96Y-2.18
X2.9728Y-2.1265
X2.99Y-1.68
X2.995Y-1.735
X3.Y-2.1
X3.01Y-2.34
X3.01Y-2.54
X3.0235Y-1.5
X3.03Y-2.075
X3.05Y-1.443
X3.05Y-2.045
X3.06Y-2.38
X3.08Y-1.4165
X3.1065Y-1.535
X3.1065Y-1.98
X3.11Y-1.92
X3.11Y-2.05
X3.15Y-2.36
X3.16Y-2.31
X3.17Y-1.88
X3.2Y-2.48
X3.21Y-2.01
X3.21Y-2.2
X3.24Y-2.25
X3.27Y-1.73
X3.27Y-2.22
X3.28Y-1.465
X3.29Y-2.4
X3.29Y-2.45
X3.29Y-2.525
X3.31Y-1.39
X3.31Y-1.49
X3.31Y-2.17
X3.32Y-1.99
X3.345Y-1.68
X3.3835Y-2.1515
X3.41Y-1.77
X3.41Y-2.03
X3.4143Y-2.24
X3.42Y-2.39
X3.43Y-2.43
X3.4485Y-1.97
X3.4485Y-2.28
X3.46Y-1.59
X3.4745Y-2.5065
X3.475Y-1.9356
X3.49Y-1.73
X3.51Y-1.49
X3.51Y-1.77
X3.51Y-2.05
X3.51Y-2.43
X3.5183Y-1.9338
X3.52Y-2.09
X3.53Y-2.76
X3.55Y-2.02
X3.55Y-2.125
X3.565Y-1.8479
X3.57Y-1.73
X3.64Y-1.63
X3.6402Y-1.8102
X3.68Y-1.77
X3.7Y-2.54
X3.76Y-1.76
X3.7602Y-1.39
X3.84Y-2.5293
X3.85Y-2.49
X3.85Y-2.71
X3.8863Y-2.5293
X3.89Y-1.34
X3.92Y-0.95
X3.96Y-2.33
X4.1967Y-2.2467
X4.2Y-1.97
X4.25Y-2.21
X4.25Y-2.29
X4.26Y-1.58
X4.28Y-2.06
X4.29Y-2.25
X4.29Y-2.53
X4.32Y-2.76
X4.33Y-2.58
X4.34Y-2.37
X4.39Y-2.43
X4.4Y-1.34
X4.43Y-2.14
X4.44Y-1.39
X4.45Y-1.58
X4.45Y-1.78
X4.53Y-1.28
X4.53Y-1.58
X4.61Y-1.63
X4.64Y-2.46
X4.76Y-1.28
X4.76Y-2.24
X4.8Y-2.54
X4.91Y-1.34
X4.95Y-0.89
X5.Y-2.03
X5.03Y-2.17
X5.04Y-1.82
X5.05Y-1.97
X5.07Y-1.17
X5.0762Y-1.8435
X5.1Y-1.14
X5.11Y-1.8635
X5.11Y-2.03
X5.11Y-2.54
X5.14Y-1.89
X5.18Y-1.27
X5.18Y-2.29
X5.1834Y-1.78
X5.2Y-0.92
X5.25Y-1.39
X5.26Y-2.03
X5.27Y-2.29
X5.31Y-1.39
X5.36Y-1.78
X5.4021Y-2.1731
X5.46Y-0.85
X5.47Y-1.97
X5.54Y-1.52
X5.66Y-1.43
X5.76Y-1.39
X5.82Y-1.6
T4
X4.34Y-1.91
X5.67Y-2.54
T5
X5.47Y-2.5408
X5.47Y-2.6392
T6
X3.81Y-2.0239
X3.81Y-2.2161
T7
X4.24Y-2.4
X4.34Y-2.3
X4.34Y-2.5
T8
X4.61Y-2.1716
X4.61Y-2.3684
T9
X3.43Y-2.58
X3.43Y-2.68
X3.53Y-2.58
X3.53Y-2.68
X3.63Y-2.58
X3.63Y-2.68
T10
X3.6Y-1.2
X3.8Y-1.2
X4.Y-1.2
X4.2Y-1.2
X4.4Y-1.2
X4.44Y-2.6
X4.44Y-2.7
X4.54Y-2.6
X4.54Y-2.7
X4.6Y-1.2
X4.64Y-2.6
X4.64Y-2.7
X4.74Y-2.6
X4.74Y-2.7
X4.8Y-1.2
X5.Y-1.2
X5.46Y-0.97
X5.46Y-1.07
X5.46Y-1.17
X5.46Y-1.27
X5.56Y-0.97
X5.56Y-1.07
X5.56Y-1.17
X5.56Y-1.27
T11
X3.37Y-0.95
X3.37Y-1.15
X3.37Y-1.35
X3.37Y-1.55
X3.99Y-1.53
X3.99Y-1.73
X3.99Y-1.93
X3.99Y-2.13
X5.91Y-0.95
X5.91Y-1.15
X5.91Y-1.35
X5.91Y-1.55
T12
X2.7176Y-1.0397
X2.7176Y-1.52
X2.9538Y-1.5987
X3.19Y-1.0397
X3.19Y-1.52
X4.3613Y-1.7238
X4.44Y-1.4876
X4.44Y-1.96
X4.9203Y-1.4876
X4.9203Y-1.96
X5.2576Y-1.0397
X5.2576Y-1.52
X5.4938Y-1.5987
X5.73Y-1.0397
X5.73Y-1.52
T2
X2.9634Y-2.7091G85X2.9634Y-2.6835
G05
X3.239Y-2.7091G85X3.239Y-2.6835
G05
T3
X2.9969Y-2.59G85X3.0087Y-2.59
G05
X3.1937Y-2.59G85X3.2055Y-2.59
G05
T0
M30
