G04 #@! TF.FileFunction,Soldermask,Bot*
%FSLAX46Y46*%
G04 Gerber Fmt 4.6, Leading zero omitted, Abs format (unit mm)*
G04 Created by KiCad (PCBNEW (2014-12-04 BZR 5312)-product) date 2/1/2015 4:22:24 PM*
%MOMM*%
G01*
G04 APERTURE LIST*
%ADD10C,0.100000*%
%ADD11C,1.905000*%
%ADD12C,1.501140*%
%ADD13C,2.000000*%
%ADD14C,1.500000*%
%ADD15C,2.500000*%
%ADD16R,1.200000X0.300000*%
%ADD17R,2.400000X2.400000*%
%ADD18C,2.032000*%
%ADD19O,1.250000X0.950000*%
%ADD20O,1.000000X1.550000*%
%ADD21R,1.727200X1.727200*%
%ADD22O,1.727200X1.727200*%
%ADD23C,1.524000*%
G04 APERTURE END LIST*
D10*
D11*
X120396000Y-66040000D03*
X117856000Y-66040000D03*
X115316000Y-66040000D03*
X112776000Y-66040000D03*
X120396000Y-68580000D03*
X117856000Y-68580000D03*
X115316000Y-68580000D03*
X112776000Y-68580000D03*
D12*
X96774000Y-51407060D03*
X96774000Y-56288940D03*
D13*
X117094000Y-60158000D03*
X117094000Y-55158000D03*
D11*
X141224000Y-24638000D03*
X138684000Y-24638000D03*
X141224000Y-27178000D03*
X138684000Y-27178000D03*
X141224000Y-29718000D03*
X138684000Y-29718000D03*
X141224000Y-32258000D03*
X138684000Y-32258000D03*
D14*
X138938000Y-67036000D03*
X138938000Y-64536000D03*
D15*
X112776000Y-49784000D03*
X112776000Y-37784000D03*
X124976000Y-37784000D03*
X124976000Y-49784000D03*
X110776000Y-43784000D03*
X81026000Y-38608000D03*
X69026000Y-38608000D03*
X69026000Y-26408000D03*
X81026000Y-26408000D03*
X75026000Y-40608000D03*
D16*
X72041001Y-57853425D03*
X72041001Y-57353425D03*
X72041001Y-56853425D03*
X72041001Y-56353425D03*
X72041001Y-55853425D03*
X72041001Y-55353425D03*
X72041001Y-54853425D03*
X72041001Y-54353425D03*
X72041001Y-53853425D03*
X72041001Y-53353425D03*
X72041001Y-52853425D03*
X72041001Y-52353425D03*
X72041001Y-51853425D03*
X72041001Y-51353425D03*
X72041001Y-50853425D03*
X72041001Y-50353425D03*
X72041001Y-49853425D03*
X72041001Y-49353425D03*
X72041001Y-48853425D03*
X72041001Y-48353425D03*
X72041001Y-47853425D03*
X72041001Y-47353425D03*
X72041001Y-46853425D03*
X72041001Y-46353425D03*
X72041001Y-45853425D03*
X72041001Y-45353425D03*
X72041001Y-44853425D03*
X72041001Y-44353425D03*
X72041001Y-43853425D03*
X72041001Y-43353425D03*
X72041001Y-42853425D03*
X72041001Y-42353425D03*
X72041001Y-41853425D03*
X72041001Y-41353425D03*
X72041001Y-40853425D03*
X72041001Y-40353425D03*
X72041001Y-39853425D03*
X72041001Y-39353425D03*
X72041001Y-38853425D03*
X72041001Y-38353425D03*
X72041001Y-37853425D03*
X72041001Y-37353425D03*
X72041001Y-36853425D03*
X72041001Y-36353425D03*
X72041001Y-35853425D03*
X72041001Y-35353425D03*
X72041001Y-34853425D03*
X72041001Y-34353425D03*
X72041001Y-33853425D03*
X72041001Y-33353425D03*
D17*
X69341001Y-59953425D03*
X69341001Y-31253425D03*
D15*
X145542000Y-38608000D03*
X133542000Y-38608000D03*
X133542000Y-26408000D03*
X145542000Y-26408000D03*
X139542000Y-40608000D03*
D18*
X101346000Y-43942000D03*
X101346000Y-49022000D03*
X101346000Y-54102000D03*
X101346000Y-38862000D03*
X85598000Y-29210000D03*
X85598000Y-34290000D03*
X85598000Y-39370000D03*
X85598000Y-24130000D03*
X150114000Y-29210000D03*
X150114000Y-34290000D03*
X150114000Y-39370000D03*
X150114000Y-24130000D03*
D19*
X76270000Y-65786000D03*
X81270000Y-65786000D03*
D20*
X75270000Y-68486000D03*
X82270000Y-68486000D03*
D18*
X106680000Y-30480000D03*
X111760000Y-30480000D03*
X101600000Y-30480000D03*
X116840000Y-30480000D03*
X96520000Y-30480000D03*
X91440000Y-30480000D03*
X121920000Y-30480000D03*
X127000000Y-30480000D03*
D21*
X92202000Y-65532000D03*
D22*
X92202000Y-68072000D03*
X89662000Y-65532000D03*
X89662000Y-68072000D03*
X87122000Y-65532000D03*
X87122000Y-68072000D03*
D23*
X107696000Y-60960000D03*
X110236000Y-58420000D03*
X110236000Y-63500000D03*
M02*
