G04 #@! TF.FileFunction,Copper,L1,Top,Signal*
%FSLAX46Y46*%
G04 Gerber Fmt 4.6, Leading zero omitted, Abs format (unit mm)*
G04 Created by KiCad (PCBNEW (2014-12-04 BZR 5312)-product) date 2/1/2015 4:22:24 PM*
%MOMM*%
G01*
G04 APERTURE LIST*
%ADD10C,0.100000*%
%ADD11R,0.550000X1.500000*%
%ADD12R,1.500000X0.550000*%
%ADD13C,1.905000*%
%ADD14C,1.501140*%
%ADD15C,2.000000*%
%ADD16R,1.800860X2.199640*%
%ADD17R,2.900000X5.400000*%
%ADD18C,1.500000*%
%ADD19R,1.200000X0.900000*%
%ADD20R,0.797560X0.797560*%
%ADD21R,2.286000X1.143000*%
%ADD22R,10.410000X10.800000*%
%ADD23C,2.500000*%
%ADD24C,2.032000*%
%ADD25R,0.750000X1.200000*%
%ADD26R,1.200000X0.750000*%
%ADD27R,0.400000X1.350000*%
%ADD28O,1.250000X0.950000*%
%ADD29O,1.000000X1.550000*%
%ADD30R,2.199640X1.800860*%
%ADD31R,1.143000X0.635000*%
%ADD32R,1.727200X1.727200*%
%ADD33O,1.727200X1.727200*%
%ADD34R,0.914400X0.914400*%
%ADD35R,0.900000X1.200000*%
%ADD36C,1.524000*%
%ADD37R,0.599440X1.399540*%
%ADD38C,0.685800*%
%ADD39C,0.889000*%
%ADD40C,0.914400*%
%ADD41C,0.304800*%
%ADD42C,0.609600*%
G04 APERTURE END LIST*
D10*
D11*
X81852000Y-59294000D03*
X82652000Y-59294000D03*
X83452000Y-59294000D03*
X84252000Y-59294000D03*
X85052000Y-59294000D03*
X85852000Y-59294000D03*
X86652000Y-59294000D03*
X87452000Y-59294000D03*
X88252000Y-59294000D03*
X89052000Y-59294000D03*
X89852000Y-59294000D03*
D12*
X91552000Y-57594000D03*
X91552000Y-56794000D03*
X91552000Y-55994000D03*
X91552000Y-55194000D03*
X91552000Y-54394000D03*
X91552000Y-53594000D03*
X91552000Y-52794000D03*
X91552000Y-51994000D03*
X91552000Y-51194000D03*
X91552000Y-50394000D03*
X91552000Y-49594000D03*
D11*
X89852000Y-47894000D03*
X89052000Y-47894000D03*
X88252000Y-47894000D03*
X87452000Y-47894000D03*
X86652000Y-47894000D03*
X85852000Y-47894000D03*
X85052000Y-47894000D03*
X84252000Y-47894000D03*
X83452000Y-47894000D03*
X82652000Y-47894000D03*
X81852000Y-47894000D03*
D12*
X80152000Y-49594000D03*
X80152000Y-50394000D03*
X80152000Y-51194000D03*
X80152000Y-51994000D03*
X80152000Y-52794000D03*
X80152000Y-53594000D03*
X80152000Y-54394000D03*
X80152000Y-55194000D03*
X80152000Y-55994000D03*
X80152000Y-56794000D03*
X80152000Y-57594000D03*
D13*
X120396000Y-66040000D03*
X117856000Y-66040000D03*
X115316000Y-66040000D03*
X112776000Y-66040000D03*
X120396000Y-68580000D03*
X117856000Y-68580000D03*
X115316000Y-68580000D03*
X112776000Y-68580000D03*
D14*
X96774000Y-51407060D03*
X96774000Y-56288940D03*
D15*
X117094000Y-60158000D03*
X117094000Y-55158000D03*
D13*
X141224000Y-24638000D03*
X138684000Y-24638000D03*
X141224000Y-27178000D03*
X138684000Y-27178000D03*
X141224000Y-29718000D03*
X138684000Y-29718000D03*
X141224000Y-32258000D03*
X138684000Y-32258000D03*
D16*
X131597400Y-53594000D03*
X135610600Y-53594000D03*
D17*
X133728000Y-61976000D03*
X123828000Y-61976000D03*
D18*
X138938000Y-67036000D03*
X138938000Y-64536000D03*
D19*
X144188000Y-67056000D03*
X146388000Y-67056000D03*
D20*
X145808700Y-64516000D03*
X147307300Y-64516000D03*
D21*
X138938000Y-55196740D03*
D22*
X147263000Y-56896000D03*
D21*
X138938000Y-58595260D03*
X138938000Y-56896000D03*
X138938000Y-53494940D03*
X138938000Y-60297060D03*
D23*
X112776000Y-49784000D03*
X112776000Y-37784000D03*
X124976000Y-37784000D03*
X124976000Y-49784000D03*
X110776000Y-43784000D03*
X81026000Y-38608000D03*
X69026000Y-38608000D03*
X69026000Y-26408000D03*
X81026000Y-26408000D03*
X75026000Y-40608000D03*
D16*
X77952600Y-58420000D03*
X73939400Y-58420000D03*
D23*
X145542000Y-38608000D03*
X133542000Y-38608000D03*
X133542000Y-26408000D03*
X145542000Y-26408000D03*
X139542000Y-40608000D03*
D24*
X101346000Y-43942000D03*
X101346000Y-49022000D03*
X101346000Y-54102000D03*
X101346000Y-38862000D03*
X85598000Y-29210000D03*
X85598000Y-34290000D03*
X85598000Y-39370000D03*
X85598000Y-24130000D03*
X150114000Y-29210000D03*
X150114000Y-34290000D03*
X150114000Y-39370000D03*
X150114000Y-24130000D03*
D25*
X85852000Y-61280000D03*
X85852000Y-63180000D03*
X82550000Y-63180000D03*
X82550000Y-61280000D03*
X93472000Y-52766000D03*
X93472000Y-50866000D03*
X93472000Y-55184000D03*
X93472000Y-57084000D03*
D26*
X76012000Y-55626000D03*
X77912000Y-55626000D03*
D27*
X77470000Y-65786000D03*
X78120000Y-65786000D03*
X78770000Y-65786000D03*
X79420000Y-65786000D03*
X80070000Y-65786000D03*
D28*
X76270000Y-65786000D03*
X81270000Y-65786000D03*
D29*
X75270000Y-68486000D03*
X82270000Y-68486000D03*
D30*
X150114000Y-45999400D03*
X150114000Y-50012600D03*
D16*
X107213400Y-54356000D03*
X111226600Y-54356000D03*
D30*
X90170000Y-36347400D03*
X90170000Y-40360600D03*
X105664000Y-38887400D03*
X105664000Y-42900600D03*
X95504000Y-46964600D03*
X95504000Y-42951400D03*
X137922000Y-44221400D03*
X137922000Y-48234600D03*
D31*
X73914000Y-61468000D03*
X73914000Y-62992000D03*
D24*
X106680000Y-30480000D03*
X111760000Y-30480000D03*
X101600000Y-30480000D03*
X116840000Y-30480000D03*
X96520000Y-30480000D03*
X91440000Y-30480000D03*
X121920000Y-30480000D03*
X127000000Y-30480000D03*
D32*
X92202000Y-65532000D03*
D33*
X92202000Y-68072000D03*
X89662000Y-65532000D03*
X89662000Y-68072000D03*
X87122000Y-65532000D03*
X87122000Y-68072000D03*
D34*
X106680000Y-46355000D03*
X106680000Y-48133000D03*
X104648000Y-47244000D03*
X90551000Y-45974000D03*
X88773000Y-45974000D03*
X89662000Y-43942000D03*
X142113000Y-45212000D03*
X143891000Y-45212000D03*
X143002000Y-47244000D03*
X70231000Y-59944000D03*
X68453000Y-59944000D03*
X69342000Y-57912000D03*
D35*
X77470000Y-63584000D03*
X77470000Y-61384000D03*
X79248000Y-63584000D03*
X79248000Y-61384000D03*
X104648000Y-52154000D03*
X104648000Y-49954000D03*
D19*
X80942000Y-45974000D03*
X83142000Y-45974000D03*
D35*
X145542000Y-45128000D03*
X145542000Y-47328000D03*
D19*
X104310000Y-68834000D03*
X106510000Y-68834000D03*
X100246000Y-68834000D03*
X102446000Y-68834000D03*
D35*
X105664000Y-59266000D03*
X105664000Y-57066000D03*
X99568000Y-65362000D03*
X99568000Y-63162000D03*
X93472000Y-60876000D03*
X93472000Y-63076000D03*
D19*
X103716000Y-59182000D03*
X101516000Y-59182000D03*
X71204000Y-56388000D03*
X69004000Y-56388000D03*
D36*
X107696000Y-60960000D03*
X110236000Y-58420000D03*
X110236000Y-63500000D03*
D37*
X101473000Y-61595000D03*
X101473000Y-66929000D03*
X102743000Y-61595000D03*
X104013000Y-61595000D03*
X105283000Y-61595000D03*
X102743000Y-66929000D03*
X104013000Y-66929000D03*
X105283000Y-66929000D03*
D38*
X111760000Y-34036000D03*
X124714000Y-34036000D03*
X98806000Y-34036000D03*
D39*
X110236000Y-48514000D03*
D38*
X70358000Y-68326000D03*
X78905110Y-50292000D03*
X75184000Y-55372000D03*
X93472000Y-44958000D03*
X138684000Y-21590000D03*
X110236000Y-60198000D03*
X98711599Y-64243737D03*
X90551000Y-46937848D03*
X99568000Y-24130000D03*
X131657154Y-45212000D03*
X108204000Y-40131617D03*
X113030000Y-40132000D03*
X113030000Y-45212000D03*
X136144000Y-45212000D03*
X67437000Y-55118000D03*
X72136000Y-32512000D03*
X72136000Y-24130000D03*
X131572000Y-58166000D03*
X70866000Y-36830000D03*
X74930000Y-34290000D03*
X134874000Y-35306000D03*
X146304000Y-35306000D03*
X115062000Y-32512000D03*
X115062000Y-40132000D03*
X147828000Y-40640000D03*
X112522000Y-54356000D03*
X75946000Y-42672000D03*
X138938000Y-50038000D03*
X128270000Y-50038000D03*
X127762000Y-55118000D03*
X117094000Y-41402000D03*
X92456000Y-41402000D03*
X86868000Y-60706000D03*
X76454000Y-59436000D03*
X74899106Y-62992000D03*
X76454000Y-64516000D03*
X80010000Y-59944000D03*
X80264000Y-58674000D03*
X93980000Y-64516000D03*
X95510057Y-35306000D03*
X92461385Y-45979385D03*
X74168000Y-32766000D03*
X70868575Y-54353425D03*
X89364474Y-49119355D03*
X80518000Y-47752000D03*
X140716000Y-38608000D03*
X106596000Y-57066000D03*
X108966000Y-57150000D03*
X108966000Y-64262000D03*
X121920000Y-64516000D03*
X129794000Y-64516000D03*
X129794000Y-51562000D03*
X133604000Y-51562000D03*
X112776000Y-35306000D03*
X133350000Y-35306000D03*
D39*
X144018000Y-64516000D03*
D38*
X95504000Y-44704000D03*
X90678000Y-43942000D03*
X88646000Y-43942000D03*
X83058000Y-43942000D03*
X137213340Y-55196740D03*
X133858000Y-58166000D03*
X70612000Y-57912000D03*
X67564000Y-56388000D03*
X76073000Y-44069000D03*
X76200000Y-53340000D03*
X84963000Y-42672000D03*
X69219357Y-50931357D03*
X72517000Y-66929000D03*
X109982000Y-65532000D03*
X109728000Y-70104000D03*
X89154000Y-61722000D03*
X87122000Y-61722000D03*
X83566000Y-64135000D03*
X71501000Y-60198000D03*
X68199000Y-52832000D03*
X89662000Y-70104000D03*
X90170000Y-53975000D03*
X75509118Y-54013110D03*
X75184000Y-43649910D03*
X88252000Y-63665089D03*
X97536000Y-64243728D03*
X97790000Y-68834000D03*
X88265000Y-49164702D03*
X78994000Y-48768000D03*
X78905110Y-38989000D03*
X89408000Y-53086000D03*
X76796890Y-38100000D03*
X76962000Y-52705000D03*
X83312000Y-37211000D03*
X77470000Y-36652220D03*
X77470000Y-51943000D03*
X78994000Y-52070000D03*
X78232000Y-35979110D03*
X84074000Y-35306000D03*
X84074000Y-37846000D03*
X87884000Y-40386000D03*
X106680000Y-50038000D03*
X81534000Y-55880000D03*
X117856000Y-62484000D03*
X82296000Y-57150000D03*
X111506000Y-61722000D03*
X132080000Y-23368000D03*
X129794000Y-47332890D03*
X90170000Y-51308000D03*
X85940890Y-54648110D03*
X125730000Y-22606000D03*
X127000000Y-51562000D03*
X87591890Y-57912000D03*
X84328000Y-50546000D03*
X128936215Y-46824890D03*
X129540000Y-28956000D03*
X120904000Y-32512000D03*
X120904000Y-56896000D03*
X107950000Y-56134000D03*
X107950000Y-58166000D03*
X83058000Y-56388000D03*
X128016000Y-46228000D03*
X128778000Y-29718000D03*
X87591890Y-50038000D03*
X130556000Y-48006000D03*
X131572000Y-32258000D03*
X89154000Y-52070000D03*
X84074000Y-55118000D03*
X108712000Y-52324000D03*
X86614000Y-44958000D03*
X89154000Y-44958000D03*
X143764000Y-36322000D03*
X89154000Y-37846000D03*
X97790000Y-63246000D03*
X68580000Y-62230000D03*
X83566000Y-60960000D03*
X77724000Y-60452000D03*
X83566000Y-62230000D03*
X81280000Y-62992000D03*
X86724461Y-56896000D03*
X86614000Y-51562000D03*
X81534000Y-51054000D03*
X100584000Y-59182000D03*
D40*
X111760000Y-30480000D02*
X111760000Y-34036000D01*
X124714000Y-37522000D02*
X124976000Y-37784000D01*
X124714000Y-34036000D02*
X124714000Y-37522000D01*
X98806000Y-41402000D02*
X101346000Y-43942000D01*
X98806000Y-34036000D02*
X98806000Y-41402000D01*
X96520000Y-30480000D02*
X97535999Y-31495999D01*
X97535999Y-31495999D02*
X97535999Y-45211999D01*
X97535999Y-45211999D02*
X100330001Y-48006001D01*
X100330001Y-48006001D02*
X101346000Y-49022000D01*
X110776000Y-43784000D02*
X110776000Y-47974000D01*
X110776000Y-47974000D02*
X110236000Y-48514000D01*
X106959400Y-54102000D02*
X107213400Y-54356000D01*
X101346000Y-54102000D02*
X106959400Y-54102000D01*
D41*
X98711599Y-61816401D02*
X98711599Y-61119599D01*
X98711599Y-61119599D02*
X97536000Y-59944000D01*
X93472000Y-57084000D02*
X93472000Y-58549126D01*
X93472000Y-58549126D02*
X94866874Y-59944000D01*
X94866874Y-59944000D02*
X97536000Y-59944000D01*
X97536000Y-59944000D02*
X99568000Y-57912000D01*
X99568000Y-57912000D02*
X99568000Y-49530000D01*
X99568000Y-49530000D02*
X97002600Y-46964600D01*
X97002600Y-46964600D02*
X95504000Y-46964600D01*
X85052000Y-59294000D02*
X85052000Y-63059800D01*
X85052000Y-63059800D02*
X85172200Y-63180000D01*
X85172200Y-63180000D02*
X85852000Y-63180000D01*
X70231000Y-59944000D02*
X70231000Y-68199000D01*
X70231000Y-68199000D02*
X70358000Y-68326000D01*
X85052000Y-59294000D02*
X85052000Y-53076800D01*
X85052000Y-53076800D02*
X81788000Y-49812800D01*
X80152000Y-50394000D02*
X79007110Y-50394000D01*
X79007110Y-50394000D02*
X78905110Y-50292000D01*
X93472000Y-57084000D02*
X93472000Y-56859000D01*
X93472000Y-56859000D02*
X92632201Y-56019201D01*
X92632201Y-56019201D02*
X92632201Y-55219401D01*
X92632201Y-55219401D02*
X92606800Y-55194000D01*
X92606800Y-55194000D02*
X91552000Y-55194000D01*
X80152000Y-56794000D02*
X76500200Y-56794000D01*
X76500200Y-56794000D02*
X76012000Y-56305800D01*
X76012000Y-56305800D02*
X76012000Y-55626000D01*
X76012000Y-55626000D02*
X75438000Y-55626000D01*
X75438000Y-55626000D02*
X75184000Y-55372000D01*
X93472000Y-44958000D02*
X93472000Y-47244000D01*
D40*
X138684000Y-24638000D02*
X138684000Y-21590000D01*
X110236000Y-60198000D02*
X110236000Y-63500000D01*
D41*
X81788000Y-49012800D02*
X81788000Y-49812800D01*
X81788000Y-49812800D02*
X81206800Y-50394000D01*
X81206800Y-50394000D02*
X80152000Y-50394000D01*
X81852000Y-47894000D02*
X81852000Y-48948800D01*
X81852000Y-48948800D02*
X81788000Y-49012800D01*
X95504000Y-46964600D02*
X93751400Y-46964600D01*
X93751400Y-46964600D02*
X93472000Y-47244000D01*
X90551000Y-47117000D02*
X90551000Y-46937848D01*
X90551000Y-46937848D02*
X90551000Y-45974000D01*
X93472000Y-50866000D02*
X93472000Y-47244000D01*
X89852000Y-47816000D02*
X90551000Y-47117000D01*
X89852000Y-47894000D02*
X89852000Y-47816000D01*
D40*
X99568000Y-31750000D02*
X101346000Y-33528000D01*
X101346000Y-33528000D02*
X101346000Y-38862000D01*
X99568000Y-24130000D02*
X99568000Y-31750000D01*
X131597400Y-53594000D02*
X131597400Y-45271754D01*
X131597400Y-45271754D02*
X131657154Y-45212000D01*
X108204000Y-39413180D02*
X108204000Y-40131617D01*
X108204000Y-40131617D02*
X108204000Y-46202600D01*
X113030000Y-45212000D02*
X113030000Y-40132000D01*
X138912600Y-45212000D02*
X136144000Y-45212000D01*
D41*
X70866000Y-39370000D02*
X67437000Y-42799000D01*
X67437000Y-42799000D02*
X67437000Y-55118000D01*
X70866000Y-39106698D02*
X70866000Y-39370000D01*
X70866000Y-36830000D02*
X70866000Y-39106698D01*
D40*
X72136000Y-24130000D02*
X72136000Y-32512000D01*
D42*
X85852000Y-63180000D02*
X82550000Y-63180000D01*
D41*
X81270000Y-65786000D02*
X80070000Y-65786000D01*
X82270000Y-68486000D02*
X81465200Y-68486000D01*
X81465200Y-68486000D02*
X75270000Y-68486000D01*
X82270000Y-68486000D02*
X82270000Y-66636000D01*
X82270000Y-66636000D02*
X81420000Y-65786000D01*
X81420000Y-65786000D02*
X81270000Y-65786000D01*
X75270000Y-68486000D02*
X75270000Y-66636000D01*
X75270000Y-66636000D02*
X76120000Y-65786000D01*
X76120000Y-65786000D02*
X76270000Y-65786000D01*
X98786935Y-64168401D02*
X98786935Y-64361543D01*
X98786935Y-64361543D02*
X98711599Y-64436879D01*
X98711599Y-64436879D02*
X98711599Y-66544799D01*
X98711599Y-66544799D02*
X100246000Y-68079200D01*
X100246000Y-68079200D02*
X100246000Y-68834000D01*
X98711599Y-61816401D02*
X98711599Y-64243737D01*
X98786935Y-64168401D02*
X98711599Y-64243737D01*
X98933000Y-61595000D02*
X98711599Y-61816401D01*
X101473000Y-61595000D02*
X98933000Y-61595000D01*
D40*
X142113000Y-35687000D02*
X142113000Y-45212000D01*
X138912600Y-45212000D02*
X137922000Y-44221400D01*
X142113000Y-45212000D02*
X138912600Y-45212000D01*
D41*
X85090000Y-59256000D02*
X85052000Y-59294000D01*
X82550000Y-63405000D02*
X82550000Y-63180000D01*
X81870200Y-64084800D02*
X82550000Y-63405000D01*
X81645200Y-64084800D02*
X81870200Y-64084800D01*
X81270000Y-64460000D02*
X81645200Y-64084800D01*
X81270000Y-65786000D02*
X81270000Y-64460000D01*
D40*
X148462999Y-25781001D02*
X148462999Y-27559001D01*
X150114000Y-24130000D02*
X148462999Y-25781001D01*
X142113000Y-33909000D02*
X142113000Y-35687000D01*
X148462999Y-27559001D02*
X142113000Y-33909000D01*
X143998000Y-67036000D02*
X144018000Y-67056000D01*
X144018000Y-67056000D02*
X144188000Y-67056000D01*
X138938000Y-67036000D02*
X143998000Y-67036000D01*
X138938000Y-67036000D02*
X147263000Y-58711000D01*
X138938000Y-60297060D02*
X143861940Y-60297060D01*
X147263000Y-58711000D02*
X147263000Y-56896000D01*
X143861940Y-60297060D02*
X147263000Y-56896000D01*
X138938000Y-56896000D02*
X147263000Y-56896000D01*
X131572000Y-53619400D02*
X131597400Y-53594000D01*
X136873401Y-56888801D02*
X131572000Y-56888801D01*
X136880600Y-56896000D02*
X136873401Y-56888801D01*
X138938000Y-56896000D02*
X136880600Y-56896000D01*
X131572000Y-56888801D02*
X131572000Y-53619400D01*
X131572000Y-58166000D02*
X131572000Y-56888801D01*
X105638600Y-38862000D02*
X105664000Y-38887400D01*
X101346000Y-38862000D02*
X105638600Y-38862000D01*
X108051600Y-46355000D02*
X106680000Y-46355000D01*
X108204000Y-46202600D02*
X108051600Y-46355000D01*
X107678220Y-38887400D02*
X108204000Y-39413180D01*
X105664000Y-38887400D02*
X107678220Y-38887400D01*
X75026000Y-40608000D02*
X75026000Y-34386000D01*
X75026000Y-34386000D02*
X74930000Y-34290000D01*
X87630000Y-34290000D02*
X91440000Y-30480000D01*
X85598000Y-34290000D02*
X87630000Y-34290000D01*
X88620600Y-36347400D02*
X85598000Y-39370000D01*
X90170000Y-36347400D02*
X88620600Y-36347400D01*
X134874000Y-35306000D02*
X134874000Y-27740000D01*
X134874000Y-27740000D02*
X133542000Y-26408000D01*
X133604000Y-26470000D02*
X133542000Y-26408000D01*
X150114000Y-31496000D02*
X146304000Y-35306000D01*
X150114000Y-29210000D02*
X150114000Y-31496000D01*
X115062000Y-40132000D02*
X115062000Y-32512000D01*
X150114000Y-34290000D02*
X147828000Y-36576000D01*
X147828000Y-36576000D02*
X147828000Y-40640000D01*
X139446000Y-40512000D02*
X139542000Y-40608000D01*
X150114000Y-39370000D02*
X150114000Y-45999400D01*
X111226600Y-54356000D02*
X112522000Y-54356000D01*
X73939400Y-42570400D02*
X74041000Y-42672000D01*
X74041000Y-42672000D02*
X75946000Y-42672000D01*
X73939400Y-58420000D02*
X73939400Y-42570400D01*
X138938000Y-53494940D02*
X138938000Y-52009040D01*
X138938000Y-52009040D02*
X138934140Y-52005180D01*
X139467540Y-50012600D02*
X150114000Y-50012600D01*
X138938000Y-52009040D02*
X138938000Y-50038000D01*
X128270000Y-54610000D02*
X127762000Y-55118000D01*
X128270000Y-50038000D02*
X128270000Y-54610000D01*
X139442140Y-50038000D02*
X138938000Y-50038000D01*
X139467540Y-50012600D02*
X139442140Y-50038000D01*
X117094000Y-55158000D02*
X117094000Y-41402000D01*
X91211400Y-41402000D02*
X90170000Y-40360600D01*
X92456000Y-41402000D02*
X91211400Y-41402000D01*
D41*
X85852000Y-59294000D02*
X85852000Y-61280000D01*
X86868000Y-60706000D02*
X86652000Y-60490000D01*
X86652000Y-60490000D02*
X86652000Y-59294000D01*
X76454000Y-59436000D02*
X76111101Y-59778899D01*
X76111101Y-59778899D02*
X76111101Y-61780005D01*
X76111101Y-61780005D02*
X75242005Y-62649101D01*
X75242005Y-62649101D02*
X74899106Y-62992000D01*
X74899106Y-62992000D02*
X73914000Y-62992000D01*
X77470000Y-65786000D02*
X77470000Y-65532000D01*
X77470000Y-65532000D02*
X76454000Y-64516000D01*
X82550000Y-61280000D02*
X81346000Y-61280000D01*
X81346000Y-61280000D02*
X80010000Y-59944000D01*
X82652000Y-59294000D02*
X82652000Y-61178000D01*
X82652000Y-61178000D02*
X82550000Y-61280000D01*
X77470000Y-65786000D02*
X77470000Y-65311000D01*
X94587060Y-53594000D02*
X92640033Y-53594000D01*
X92640033Y-53594000D02*
X91552000Y-53594000D01*
X93472000Y-52766000D02*
X93472000Y-52991000D01*
X93472000Y-52991000D02*
X92869000Y-53594000D01*
X92869000Y-53594000D02*
X92640033Y-53594000D01*
X96774000Y-51407060D02*
X94587060Y-53594000D01*
X92786800Y-53594000D02*
X92606800Y-53594000D01*
X92606800Y-53594000D02*
X91552000Y-53594000D01*
X96774000Y-56288940D02*
X94879060Y-54394000D01*
X94879060Y-54394000D02*
X91552000Y-54394000D01*
X91552000Y-54394000D02*
X92682000Y-54394000D01*
X92682000Y-54394000D02*
X93472000Y-55184000D01*
X80152000Y-55994000D02*
X78280000Y-55994000D01*
X78280000Y-55994000D02*
X78166000Y-55880000D01*
X80152000Y-57594000D02*
X80152000Y-58562000D01*
X80152000Y-58562000D02*
X80264000Y-58674000D01*
X93472000Y-63076000D02*
X93472000Y-64008000D01*
X93472000Y-64008000D02*
X93980000Y-64516000D01*
X95474788Y-40386000D02*
X95474788Y-35341269D01*
X95474788Y-35341269D02*
X95510057Y-35306000D01*
X92461385Y-45979385D02*
X92461385Y-43399403D01*
X92461385Y-43399403D02*
X95474788Y-40386000D01*
D40*
X74168000Y-32766000D02*
X72390000Y-34544000D01*
X72390000Y-34544000D02*
X70358000Y-34544000D01*
X70358000Y-34544000D02*
X69026000Y-35876000D01*
X69026000Y-35876000D02*
X69026000Y-38608000D01*
D41*
X71204000Y-56388000D02*
X71204000Y-54688850D01*
X71204000Y-54688850D02*
X70868575Y-54353425D01*
X88392000Y-50916593D02*
X88392000Y-53888800D01*
X88392000Y-53888800D02*
X90497200Y-55994000D01*
X90497200Y-55994000D02*
X91552000Y-55994000D01*
X89364474Y-49119355D02*
X89364474Y-49944119D01*
X89364474Y-49944119D02*
X88392000Y-50916593D01*
X89364474Y-49119355D02*
X89052000Y-48806881D01*
X89052000Y-48806881D02*
X89052000Y-47894000D01*
X80152000Y-49594000D02*
X80152000Y-48118000D01*
X80152000Y-48118000D02*
X80518000Y-47752000D01*
D40*
X140716000Y-38608000D02*
X140716000Y-32766000D01*
X140716000Y-32766000D02*
X141224000Y-32258000D01*
X120396000Y-66040000D02*
X121920000Y-64516000D01*
D41*
X108966000Y-64262000D02*
X108966000Y-57150000D01*
X105283000Y-66929000D02*
X108936078Y-66929000D01*
X108966000Y-64262000D02*
X108966000Y-66899078D01*
X108966000Y-66899078D02*
X108936078Y-66929000D01*
D40*
X121920000Y-64516000D02*
X121920000Y-63884000D01*
X121920000Y-63884000D02*
X123828000Y-61976000D01*
X129794000Y-51562000D02*
X129794000Y-64516000D01*
X133542000Y-38608000D02*
X133542000Y-51500000D01*
X133542000Y-51500000D02*
X133604000Y-51562000D01*
X112776000Y-35306000D02*
X112776000Y-37784000D01*
X133542000Y-38608000D02*
X133542000Y-35498000D01*
X133542000Y-35498000D02*
X133350000Y-35306000D01*
D41*
X106510000Y-68834000D02*
X106510000Y-68156000D01*
X106510000Y-68156000D02*
X105283000Y-66929000D01*
X106596000Y-57066000D02*
X105664000Y-57066000D01*
X106360000Y-68834000D02*
X106510000Y-68834000D01*
X93472000Y-63980800D02*
X93472000Y-63076000D01*
X93472001Y-66801999D02*
X93472000Y-63980800D01*
X92202000Y-68072000D02*
X93472001Y-66801999D01*
D40*
X123828000Y-63226000D02*
X123828000Y-61976000D01*
X136398000Y-59077860D02*
X136398000Y-61996000D01*
X136398000Y-61996000D02*
X138938000Y-64536000D01*
X144018000Y-64516000D02*
X145808700Y-64516000D01*
X138938000Y-58595260D02*
X136880600Y-58595260D01*
X136880600Y-58595260D02*
X136398000Y-59077860D01*
D41*
X78120000Y-65786000D02*
X78120000Y-64234000D01*
X78120000Y-64234000D02*
X77470000Y-63584000D01*
X78770000Y-65786000D02*
X78770000Y-64062000D01*
X78770000Y-64062000D02*
X79248000Y-63584000D01*
D40*
X104648000Y-43916600D02*
X104648000Y-47244000D01*
X105664000Y-42900600D02*
X104648000Y-43916600D01*
X104648000Y-49954000D02*
X104648000Y-47244000D01*
X95504000Y-44704000D02*
X95504000Y-42951400D01*
X89662000Y-43942000D02*
X90678000Y-43942000D01*
X88646000Y-43942000D02*
X89662000Y-43942000D01*
X83142000Y-45974000D02*
X83142000Y-44026000D01*
X83142000Y-44026000D02*
X83058000Y-43942000D01*
D42*
X143086000Y-47328000D02*
X143002000Y-47244000D01*
D40*
X145542000Y-47328000D02*
X143086000Y-47328000D01*
X138912600Y-47244000D02*
X137922000Y-48234600D01*
X143002000Y-47244000D02*
X138912600Y-47244000D01*
D41*
X77952600Y-58420000D02*
X75438000Y-58420000D01*
X75438000Y-58420000D02*
X75438000Y-61468000D01*
X75438000Y-61468000D02*
X75103990Y-61468000D01*
X75103990Y-61468000D02*
X73914000Y-61468000D01*
X77952600Y-58619390D02*
X77952600Y-58420000D01*
D40*
X133728000Y-61976000D02*
X133728000Y-58296000D01*
X133728000Y-58296000D02*
X133858000Y-58166000D01*
X138938000Y-55196740D02*
X138097260Y-55196740D01*
X138097260Y-55196740D02*
X138052616Y-55152096D01*
X134568740Y-62816740D02*
X133728000Y-61976000D01*
X134594600Y-61109400D02*
X133728000Y-61976000D01*
X137213340Y-55196740D02*
X138938000Y-55196740D01*
X135610600Y-53594000D02*
X137213340Y-55196740D01*
X146388000Y-67056000D02*
X147307300Y-66136700D01*
X147307300Y-66136700D02*
X147307300Y-64516000D01*
D41*
X69342000Y-57912000D02*
X70612000Y-57912000D01*
X69004000Y-56388000D02*
X67564000Y-56388000D01*
X76200000Y-53340000D02*
X76200000Y-44196000D01*
X76200000Y-44196000D02*
X76073000Y-44069000D01*
X85052000Y-47894000D02*
X85052000Y-42761000D01*
X85052000Y-42761000D02*
X84963000Y-42672000D01*
X72390000Y-54102000D02*
X69219357Y-50931357D01*
X69219357Y-50931357D02*
X69088000Y-50800000D01*
X72390000Y-55245000D02*
X72390000Y-54102000D01*
X72390000Y-55245000D02*
X72390000Y-66802000D01*
X72390000Y-66802000D02*
X72517000Y-66929000D01*
X92202000Y-61064200D02*
X90431800Y-59294000D01*
X90431800Y-59294000D02*
X89852000Y-59294000D01*
X92202000Y-61064200D02*
X92202000Y-65532000D01*
X109728000Y-70104000D02*
X109728000Y-65786000D01*
X109728000Y-65786000D02*
X109982000Y-65532000D01*
X89154000Y-61722000D02*
X89154000Y-59396000D01*
X89154000Y-59396000D02*
X89052000Y-59294000D01*
X87122000Y-63500000D02*
X87122000Y-61722000D01*
X83566000Y-64135000D02*
X84353378Y-64135000D01*
X84353378Y-64135000D02*
X85293189Y-65074811D01*
X68199000Y-52832000D02*
X70129401Y-54762401D01*
X70129401Y-54762401D02*
X70129401Y-57079389D01*
X70129401Y-57079389D02*
X70288911Y-57238899D01*
X70288911Y-57238899D02*
X70935089Y-57238899D01*
X70935089Y-57238899D02*
X71501000Y-57804810D01*
X71501000Y-57804810D02*
X71501000Y-60198000D01*
X86106000Y-70104000D02*
X85293189Y-69291189D01*
X85293189Y-69291189D02*
X85293189Y-65074811D01*
X89662000Y-70104000D02*
X86106000Y-70104000D01*
X85547189Y-65074811D02*
X87122000Y-63500000D01*
X85293189Y-65074811D02*
X85547189Y-65074811D01*
X90170000Y-53975000D02*
X90170000Y-53121200D01*
X90170000Y-53121200D02*
X90497200Y-52794000D01*
X90497200Y-52794000D02*
X91552000Y-52794000D01*
X75184000Y-44323000D02*
X75509118Y-44648118D01*
X75509118Y-44648118D02*
X75509118Y-54013110D01*
X75184000Y-43649910D02*
X75184000Y-44323000D01*
X88252000Y-63665089D02*
X88252000Y-63218484D01*
X88252000Y-64122000D02*
X88252000Y-63665089D01*
X97790000Y-68580000D02*
X97790000Y-64497728D01*
X97790000Y-64497728D02*
X97536000Y-64243728D01*
X88265000Y-49164702D02*
X88265000Y-50361080D01*
X88265000Y-50361080D02*
X87376000Y-51250080D01*
X87376000Y-51250080D02*
X87376000Y-56699920D01*
X87376000Y-56699920D02*
X88264991Y-57588911D01*
X88264991Y-57588911D02*
X88264991Y-58226209D01*
X88264991Y-58226209D02*
X88252000Y-58239200D01*
X88252000Y-58239200D02*
X88252000Y-59294000D01*
X97790000Y-68580000D02*
X97790000Y-68834000D01*
X88252000Y-63218484D02*
X88252000Y-59294000D01*
X88265000Y-59281000D02*
X88252000Y-59294000D01*
X78905110Y-38989000D02*
X78905110Y-48679110D01*
X78905110Y-48679110D02*
X78994000Y-48768000D01*
X88252000Y-64122000D02*
X89662000Y-65532000D01*
X89408000Y-53086000D02*
X90500000Y-51994000D01*
X90500000Y-51994000D02*
X91552000Y-51994000D01*
X76796890Y-38989000D02*
X76796890Y-38100000D01*
X76796890Y-38989000D02*
X76796890Y-52539890D01*
X76796890Y-52539890D02*
X76962000Y-52705000D01*
X83452000Y-47894000D02*
X83452000Y-46839200D01*
X83452000Y-46839200D02*
X83529790Y-46761410D01*
X83529790Y-46761410D02*
X83998952Y-46761410D01*
X83998952Y-46761410D02*
X84072201Y-46688161D01*
X84072201Y-46688161D02*
X84072201Y-38840391D01*
X84072201Y-38840391D02*
X83312000Y-38080190D01*
X83312000Y-38080190D02*
X83312000Y-37211000D01*
X77470000Y-51943000D02*
X77470000Y-36652220D01*
X80152000Y-51994000D02*
X79070000Y-51994000D01*
X79070000Y-51994000D02*
X78994000Y-52070000D01*
X80152000Y-52794000D02*
X78702000Y-52794000D01*
X78702000Y-52794000D02*
X78232000Y-52324000D01*
X78232000Y-52324000D02*
X78232000Y-46054638D01*
X78232000Y-46054638D02*
X78232000Y-35979110D01*
X84074000Y-37846000D02*
X84074000Y-35306000D01*
X88252000Y-47894000D02*
X88252000Y-46839200D01*
X88252000Y-46839200D02*
X87858590Y-46445790D01*
X87858590Y-46445790D02*
X87858590Y-40411410D01*
X87858590Y-40411410D02*
X87884000Y-40386000D01*
D40*
X104648000Y-52154000D02*
X106342000Y-52154000D01*
X106342000Y-52154000D02*
X106680000Y-51816000D01*
X106680000Y-51816000D02*
X106680000Y-50038000D01*
X81026000Y-38608000D02*
X81026000Y-45890000D01*
X81026000Y-45890000D02*
X80942000Y-45974000D01*
X145542000Y-38608000D02*
X145542000Y-45128000D01*
D41*
X94742000Y-62296000D02*
X93472000Y-61026000D01*
X93472000Y-61026000D02*
X93472000Y-60876000D01*
X87122000Y-65532000D02*
X85851999Y-66802001D01*
X85851999Y-66802001D02*
X85851999Y-68681601D01*
X85851999Y-68681601D02*
X86512399Y-69342001D01*
X86512399Y-69342001D02*
X92811601Y-69342001D01*
X92811601Y-69342001D02*
X94742000Y-67411602D01*
X93472000Y-60876000D02*
X93472000Y-60726000D01*
X93472000Y-60726000D02*
X92717200Y-59971200D01*
X92717200Y-59971200D02*
X92172678Y-59971200D01*
X92172678Y-59971200D02*
X90395599Y-58194121D01*
X90395599Y-58194121D02*
X90395599Y-56895601D01*
X90395599Y-56895601D02*
X90497200Y-56794000D01*
X90497200Y-56794000D02*
X91552000Y-56794000D01*
X94742000Y-67411602D02*
X94742000Y-62296000D01*
X117856000Y-66040000D02*
X117856000Y-62484000D01*
X80152000Y-55194000D02*
X80848000Y-55194000D01*
X80848000Y-55194000D02*
X81534000Y-55880000D01*
X82296000Y-57150000D02*
X82296000Y-55448220D01*
X82296000Y-55448220D02*
X81241780Y-54394000D01*
X81241780Y-54394000D02*
X80152000Y-54394000D01*
X111506000Y-70104000D02*
X111493299Y-70091299D01*
X111493299Y-70091299D02*
X111493299Y-61734701D01*
X111493299Y-61734701D02*
X111506000Y-61722000D01*
X116332000Y-70104000D02*
X111506000Y-70104000D01*
X117856000Y-68580000D02*
X116332000Y-70104000D01*
X129794000Y-32512000D02*
X131961799Y-30344201D01*
X131961799Y-30344201D02*
X131961799Y-23486201D01*
X131961799Y-23486201D02*
X132080000Y-23368000D01*
X129794000Y-32766000D02*
X129794000Y-32512000D01*
X129794000Y-47332890D02*
X129794000Y-32766000D01*
X90170000Y-51308000D02*
X91438000Y-51308000D01*
X91438000Y-51308000D02*
X91552000Y-51194000D01*
X87591890Y-57912000D02*
X86744271Y-57912000D01*
X86744271Y-57912000D02*
X85940890Y-57108619D01*
X85940890Y-57108619D02*
X85940890Y-54648110D01*
X125653799Y-32181799D02*
X125653799Y-22682201D01*
X125653799Y-22682201D02*
X125730000Y-22606000D01*
X127000000Y-33528000D02*
X125653799Y-32181799D01*
X127000000Y-51562000D02*
X127000000Y-33528000D01*
X87591890Y-57912000D02*
X87591890Y-59154110D01*
X87591890Y-59154110D02*
X87452000Y-59294000D01*
X82652000Y-47894000D02*
X82652000Y-48948800D01*
X82652000Y-48948800D02*
X84249200Y-50546000D01*
X84249200Y-50546000D02*
X84328000Y-50546000D01*
X128936215Y-32099785D02*
X129540000Y-31496000D01*
X129540000Y-31496000D02*
X129540000Y-28956000D01*
X128936215Y-46824890D02*
X128936215Y-32099785D01*
X82550000Y-47996000D02*
X82652000Y-47894000D01*
X120904000Y-56896000D02*
X120904000Y-32512000D01*
X107950000Y-58166000D02*
X107950000Y-56134000D01*
X81206800Y-53594000D02*
X83058000Y-55445200D01*
X83058000Y-55445200D02*
X83058000Y-56388000D01*
X80152000Y-53594000D02*
X81206800Y-53594000D01*
X128778000Y-31242000D02*
X128016000Y-32004000D01*
X128016000Y-32004000D02*
X128016000Y-46228000D01*
X128778000Y-29718000D02*
X128778000Y-31242000D01*
X87452000Y-47894000D02*
X87452000Y-49898110D01*
X87452000Y-49898110D02*
X87591890Y-50038000D01*
X87591890Y-48033890D02*
X87452000Y-47894000D01*
X131572000Y-32258000D02*
X130556000Y-33274000D01*
X130556000Y-33274000D02*
X130556000Y-48006000D01*
X91552000Y-50394000D02*
X90087810Y-50394000D01*
X90087810Y-50394000D02*
X89154000Y-51327810D01*
X89154000Y-51327810D02*
X89154000Y-51585067D01*
X89154000Y-51585067D02*
X89154000Y-52070000D01*
X84074000Y-56368190D02*
X81852000Y-58590190D01*
X81852000Y-58590190D02*
X81852000Y-59294000D01*
X84074000Y-55118000D02*
X84074000Y-56368190D01*
X107569000Y-48133000D02*
X108712000Y-49276000D01*
X108712000Y-49276000D02*
X108712000Y-52324000D01*
X106680000Y-48133000D02*
X107569000Y-48133000D01*
X86614000Y-44958000D02*
X86614000Y-47856000D01*
X86614000Y-47856000D02*
X86652000Y-47894000D01*
X88773000Y-45974000D02*
X88773000Y-45339000D01*
X88773000Y-45339000D02*
X89154000Y-44958000D01*
X143764000Y-36322000D02*
X143764000Y-45085000D01*
X143764000Y-45085000D02*
X143891000Y-45212000D01*
X85852000Y-47894000D02*
X85852000Y-41148000D01*
X85852000Y-41148000D02*
X89154000Y-37846000D01*
X95224610Y-60984248D02*
X95528248Y-60984248D01*
X95528248Y-60984248D02*
X97790000Y-63246000D01*
X68453000Y-59944000D02*
X68453000Y-62103000D01*
X68453000Y-62103000D02*
X68580000Y-62230000D01*
X95224610Y-60984248D02*
X92914362Y-58674000D01*
X92914362Y-58674000D02*
X91948000Y-58674000D01*
X91948000Y-58674000D02*
X91552000Y-58278000D01*
X91552000Y-58278000D02*
X91552000Y-57594000D01*
X83452000Y-60846000D02*
X83566000Y-60960000D01*
X83452000Y-59294000D02*
X83452000Y-60846000D01*
X77470000Y-60706000D02*
X77724000Y-60452000D01*
X77470000Y-61384000D02*
X77470000Y-60706000D01*
X84252000Y-60630000D02*
X84252000Y-61544000D01*
X84252000Y-61544000D02*
X83566000Y-62230000D01*
X84252000Y-59294000D02*
X84252000Y-60630000D01*
X79248000Y-61384000D02*
X80002800Y-61384000D01*
X80002800Y-61714800D02*
X81280000Y-62992000D01*
X80002800Y-61384000D02*
X80002800Y-61714800D01*
X104310000Y-68834000D02*
X104310000Y-67226000D01*
X104310000Y-67226000D02*
X104013000Y-66929000D01*
X102446000Y-68834000D02*
X104310000Y-68834000D01*
X104267000Y-68791000D02*
X104310000Y-68834000D01*
X107696000Y-60960000D02*
X105918000Y-60960000D01*
X105918000Y-60960000D02*
X105283000Y-61595000D01*
X105283000Y-61595000D02*
X105283000Y-59647000D01*
X105283000Y-59647000D02*
X105664000Y-59266000D01*
X99568000Y-65362000D02*
X99906000Y-65362000D01*
X99906000Y-65362000D02*
X101473000Y-66929000D01*
X101473000Y-66929000D02*
X102743000Y-66929000D01*
X104013000Y-61595000D02*
X104013000Y-59479000D01*
X104013000Y-59479000D02*
X103716000Y-59182000D01*
X99568000Y-63162000D02*
X103450570Y-63162000D01*
X103450570Y-63162000D02*
X104013000Y-62599570D01*
X104013000Y-62599570D02*
X104013000Y-61595000D01*
X86614000Y-51562000D02*
X86614000Y-56785539D01*
X86614000Y-56785539D02*
X86724461Y-56896000D01*
X81280000Y-51308000D02*
X81280000Y-51267200D01*
X81280000Y-51267200D02*
X81206800Y-51194000D01*
X81206800Y-51194000D02*
X80152000Y-51194000D01*
X81534000Y-51054000D02*
X81280000Y-51308000D01*
X101516000Y-59182000D02*
X100584000Y-59182000D01*
X102743000Y-61595000D02*
X102743000Y-60409000D01*
X102743000Y-60409000D02*
X101516000Y-59182000D01*
M02*
