G04 #@! TF.FileFunction,Soldermask,Top*
%FSLAX46Y46*%
G04 Gerber Fmt 4.6, Leading zero omitted, Abs format (unit mm)*
G04 Created by KiCad (PCBNEW (2014-12-04 BZR 5312)-product) date 2/1/2015 4:03:18 PM*
%MOMM*%
G01*
G04 APERTURE LIST*
%ADD10C,0.100000*%
%ADD11R,0.550000X1.500000*%
%ADD12R,1.500000X0.550000*%
%ADD13C,1.905000*%
%ADD14C,1.501140*%
%ADD15C,2.000000*%
%ADD16R,1.800860X2.199640*%
%ADD17R,2.900000X5.400000*%
%ADD18C,1.500000*%
%ADD19R,1.200000X0.900000*%
%ADD20R,0.797560X0.797560*%
%ADD21R,2.286000X1.143000*%
%ADD22R,10.410000X10.800000*%
%ADD23C,2.500000*%
%ADD24C,2.032000*%
%ADD25R,0.750000X1.200000*%
%ADD26R,1.200000X0.750000*%
%ADD27R,0.400000X1.350000*%
%ADD28O,1.250000X0.950000*%
%ADD29O,1.000000X1.550000*%
%ADD30R,2.199640X1.800860*%
%ADD31R,1.143000X0.635000*%
%ADD32R,1.727200X1.727200*%
%ADD33O,1.727200X1.727200*%
%ADD34R,0.914400X0.914400*%
%ADD35R,0.900000X1.200000*%
%ADD36C,1.524000*%
%ADD37R,0.599440X1.399540*%
G04 APERTURE END LIST*
D10*
D11*
X81852000Y-59294000D03*
X82652000Y-59294000D03*
X83452000Y-59294000D03*
X84252000Y-59294000D03*
X85052000Y-59294000D03*
X85852000Y-59294000D03*
X86652000Y-59294000D03*
X87452000Y-59294000D03*
X88252000Y-59294000D03*
X89052000Y-59294000D03*
X89852000Y-59294000D03*
D12*
X91552000Y-57594000D03*
X91552000Y-56794000D03*
X91552000Y-55994000D03*
X91552000Y-55194000D03*
X91552000Y-54394000D03*
X91552000Y-53594000D03*
X91552000Y-52794000D03*
X91552000Y-51994000D03*
X91552000Y-51194000D03*
X91552000Y-50394000D03*
X91552000Y-49594000D03*
D11*
X89852000Y-47894000D03*
X89052000Y-47894000D03*
X88252000Y-47894000D03*
X87452000Y-47894000D03*
X86652000Y-47894000D03*
X85852000Y-47894000D03*
X85052000Y-47894000D03*
X84252000Y-47894000D03*
X83452000Y-47894000D03*
X82652000Y-47894000D03*
X81852000Y-47894000D03*
D12*
X80152000Y-49594000D03*
X80152000Y-50394000D03*
X80152000Y-51194000D03*
X80152000Y-51994000D03*
X80152000Y-52794000D03*
X80152000Y-53594000D03*
X80152000Y-54394000D03*
X80152000Y-55194000D03*
X80152000Y-55994000D03*
X80152000Y-56794000D03*
X80152000Y-57594000D03*
D13*
X120396000Y-66040000D03*
X117856000Y-66040000D03*
X115316000Y-66040000D03*
X112776000Y-66040000D03*
X120396000Y-68580000D03*
X117856000Y-68580000D03*
X115316000Y-68580000D03*
X112776000Y-68580000D03*
D14*
X96774000Y-51407060D03*
X96774000Y-56288940D03*
D15*
X117094000Y-60158000D03*
X117094000Y-55158000D03*
D13*
X141224000Y-24638000D03*
X138684000Y-24638000D03*
X141224000Y-27178000D03*
X138684000Y-27178000D03*
X141224000Y-29718000D03*
X138684000Y-29718000D03*
X141224000Y-32258000D03*
X138684000Y-32258000D03*
D16*
X131597400Y-53594000D03*
X135610600Y-53594000D03*
D17*
X133728000Y-61976000D03*
X123828000Y-61976000D03*
D18*
X138938000Y-67036000D03*
X138938000Y-64536000D03*
D19*
X144188000Y-67056000D03*
X146388000Y-67056000D03*
D20*
X145808700Y-64516000D03*
X147307300Y-64516000D03*
D21*
X138938000Y-55196740D03*
D22*
X147263000Y-56896000D03*
D21*
X138938000Y-58595260D03*
X138938000Y-56896000D03*
X138938000Y-53494940D03*
X138938000Y-60297060D03*
D23*
X112776000Y-49784000D03*
X112776000Y-37784000D03*
X124976000Y-37784000D03*
X124976000Y-49784000D03*
X110776000Y-43784000D03*
X81026000Y-38608000D03*
X69026000Y-38608000D03*
X69026000Y-26408000D03*
X81026000Y-26408000D03*
X75026000Y-40608000D03*
D16*
X77952600Y-58420000D03*
X73939400Y-58420000D03*
D23*
X145542000Y-38608000D03*
X133542000Y-38608000D03*
X133542000Y-26408000D03*
X145542000Y-26408000D03*
X139542000Y-40608000D03*
D24*
X101346000Y-43942000D03*
X101346000Y-49022000D03*
X101346000Y-54102000D03*
X101346000Y-38862000D03*
X85598000Y-29210000D03*
X85598000Y-34290000D03*
X85598000Y-39370000D03*
X85598000Y-24130000D03*
X150114000Y-29210000D03*
X150114000Y-34290000D03*
X150114000Y-39370000D03*
X150114000Y-24130000D03*
D25*
X85852000Y-61280000D03*
X85852000Y-63180000D03*
X82550000Y-63180000D03*
X82550000Y-61280000D03*
X93472000Y-52766000D03*
X93472000Y-50866000D03*
X93472000Y-55184000D03*
X93472000Y-57084000D03*
D26*
X76012000Y-55626000D03*
X77912000Y-55626000D03*
D27*
X77470000Y-65786000D03*
X78120000Y-65786000D03*
X78770000Y-65786000D03*
X79420000Y-65786000D03*
X80070000Y-65786000D03*
D28*
X76270000Y-65786000D03*
X81270000Y-65786000D03*
D29*
X75270000Y-68486000D03*
X82270000Y-68486000D03*
D30*
X150114000Y-45999400D03*
X150114000Y-50012600D03*
D16*
X107213400Y-54356000D03*
X111226600Y-54356000D03*
D30*
X90170000Y-36347400D03*
X90170000Y-40360600D03*
X105664000Y-38887400D03*
X105664000Y-42900600D03*
X95504000Y-46964600D03*
X95504000Y-42951400D03*
X137922000Y-44221400D03*
X137922000Y-48234600D03*
D31*
X73914000Y-61468000D03*
X73914000Y-62992000D03*
D24*
X106680000Y-30480000D03*
X111760000Y-30480000D03*
X101600000Y-30480000D03*
X116840000Y-30480000D03*
X96520000Y-30480000D03*
X91440000Y-30480000D03*
X121920000Y-30480000D03*
X127000000Y-30480000D03*
D32*
X92202000Y-65532000D03*
D33*
X92202000Y-68072000D03*
X89662000Y-65532000D03*
X89662000Y-68072000D03*
X87122000Y-65532000D03*
X87122000Y-68072000D03*
D34*
X106680000Y-46355000D03*
X106680000Y-48133000D03*
X104648000Y-47244000D03*
X90551000Y-45974000D03*
X88773000Y-45974000D03*
X89662000Y-43942000D03*
X142113000Y-45212000D03*
X143891000Y-45212000D03*
X143002000Y-47244000D03*
X70231000Y-59944000D03*
X68453000Y-59944000D03*
X69342000Y-57912000D03*
D35*
X77470000Y-63584000D03*
X77470000Y-61384000D03*
X79248000Y-63584000D03*
X79248000Y-61384000D03*
X104648000Y-52154000D03*
X104648000Y-49954000D03*
D19*
X80942000Y-45974000D03*
X83142000Y-45974000D03*
D35*
X145542000Y-45128000D03*
X145542000Y-47328000D03*
D19*
X104310000Y-68834000D03*
X106510000Y-68834000D03*
X100246000Y-68834000D03*
X102446000Y-68834000D03*
D35*
X105664000Y-59266000D03*
X105664000Y-57066000D03*
X99568000Y-65362000D03*
X99568000Y-63162000D03*
X93472000Y-60876000D03*
X93472000Y-63076000D03*
D19*
X103716000Y-59182000D03*
X101516000Y-59182000D03*
X71204000Y-56388000D03*
X69004000Y-56388000D03*
D36*
X107696000Y-60960000D03*
X110236000Y-58420000D03*
X110236000Y-63500000D03*
D37*
X101473000Y-61595000D03*
X101473000Y-66929000D03*
X102743000Y-61595000D03*
X104013000Y-61595000D03*
X105283000Y-61595000D03*
X102743000Y-66929000D03*
X104013000Y-66929000D03*
X105283000Y-66929000D03*
M02*
