G04 #@! TF.FileFunction,Legend,Bot*
%FSLAX46Y46*%
G04 Gerber Fmt 4.6, Leading zero omitted, Abs format (unit mm)*
G04 Created by KiCad (PCBNEW (2014-12-04 BZR 5312)-product) date 2/1/2015 4:03:18 PM*
%MOMM*%
G01*
G04 APERTURE LIST*
%ADD10C,0.100000*%
%ADD11C,0.300000*%
%ADD12C,0.150000*%
G04 APERTURE END LIST*
D10*
D11*
X151788857Y-53974571D02*
X151788857Y-52474571D01*
X151288857Y-53546000D01*
X150788857Y-52474571D01*
X150788857Y-53974571D01*
X150074571Y-53831714D02*
X150003143Y-53903143D01*
X150074571Y-53974571D01*
X150146000Y-53903143D01*
X150074571Y-53831714D01*
X150074571Y-53974571D01*
X148503142Y-53974571D02*
X149003142Y-53260286D01*
X149360285Y-53974571D02*
X149360285Y-52474571D01*
X148788857Y-52474571D01*
X148645999Y-52546000D01*
X148574571Y-52617429D01*
X148503142Y-52760286D01*
X148503142Y-52974571D01*
X148574571Y-53117429D01*
X148645999Y-53188857D01*
X148788857Y-53260286D01*
X149360285Y-53260286D01*
X147860285Y-53831714D02*
X147788857Y-53903143D01*
X147860285Y-53974571D01*
X147931714Y-53903143D01*
X147860285Y-53831714D01*
X147860285Y-53974571D01*
X146217428Y-52474571D02*
X145360285Y-52474571D01*
X145788856Y-53974571D02*
X145788856Y-52474571D01*
X144860285Y-53974571D02*
X144860285Y-52474571D01*
X144860285Y-53188857D02*
X144003142Y-53188857D01*
X144003142Y-53974571D02*
X144003142Y-52474571D01*
X143288856Y-53188857D02*
X142788856Y-53188857D01*
X142574570Y-53974571D02*
X143288856Y-53974571D01*
X143288856Y-52474571D01*
X142574570Y-52474571D01*
X141074570Y-53974571D02*
X141574570Y-53260286D01*
X141931713Y-53974571D02*
X141931713Y-52474571D01*
X141360285Y-52474571D01*
X141217427Y-52546000D01*
X141145999Y-52617429D01*
X141074570Y-52760286D01*
X141074570Y-52974571D01*
X141145999Y-53117429D01*
X141217427Y-53188857D01*
X141360285Y-53260286D01*
X141931713Y-53260286D01*
X140431713Y-53974571D02*
X140431713Y-52474571D01*
X139931713Y-53546000D01*
X139431713Y-52474571D01*
X139431713Y-53974571D01*
X138431713Y-52474571D02*
X138145999Y-52474571D01*
X138003141Y-52546000D01*
X137860284Y-52688857D01*
X137788856Y-52974571D01*
X137788856Y-53474571D01*
X137860284Y-53760286D01*
X138003141Y-53903143D01*
X138145999Y-53974571D01*
X138431713Y-53974571D01*
X138574570Y-53903143D01*
X138717427Y-53760286D01*
X138788856Y-53474571D01*
X138788856Y-52974571D01*
X138717427Y-52688857D01*
X138574570Y-52546000D01*
X138431713Y-52474571D01*
X137217427Y-53903143D02*
X137003141Y-53974571D01*
X136645998Y-53974571D01*
X136503141Y-53903143D01*
X136431712Y-53831714D01*
X136360284Y-53688857D01*
X136360284Y-53546000D01*
X136431712Y-53403143D01*
X136503141Y-53331714D01*
X136645998Y-53260286D01*
X136931712Y-53188857D01*
X137074570Y-53117429D01*
X137145998Y-53046000D01*
X137217427Y-52903143D01*
X137217427Y-52760286D01*
X137145998Y-52617429D01*
X137074570Y-52546000D01*
X136931712Y-52474571D01*
X136574570Y-52474571D01*
X136360284Y-52546000D01*
X135931713Y-52474571D02*
X135074570Y-52474571D01*
X135503141Y-53974571D02*
X135503141Y-52474571D01*
X134645999Y-53546000D02*
X133931713Y-53546000D01*
X134788856Y-53974571D02*
X134288856Y-52474571D01*
X133788856Y-53974571D01*
X133503142Y-52474571D02*
X132645999Y-52474571D01*
X133074570Y-53974571D02*
X133074570Y-52474571D01*
X131217428Y-52474571D02*
X130360285Y-52474571D01*
X130788856Y-53974571D02*
X130788856Y-52474571D01*
X129003142Y-53831714D02*
X129074571Y-53903143D01*
X129288857Y-53974571D01*
X129431714Y-53974571D01*
X129645999Y-53903143D01*
X129788857Y-53760286D01*
X129860285Y-53617429D01*
X129931714Y-53331714D01*
X129931714Y-53117429D01*
X129860285Y-52831714D01*
X129788857Y-52688857D01*
X129645999Y-52546000D01*
X129431714Y-52474571D01*
X129288857Y-52474571D01*
X129074571Y-52546000D01*
X129003142Y-52617429D01*
X128360285Y-52474571D02*
X128360285Y-53688857D01*
X128288857Y-53831714D01*
X128217428Y-53903143D01*
X128074571Y-53974571D01*
X127788857Y-53974571D01*
X127645999Y-53903143D01*
X127574571Y-53831714D01*
X127503142Y-53688857D01*
X127503142Y-52474571D01*
X152003143Y-54874571D02*
X151146000Y-54874571D01*
X151574571Y-56374571D02*
X151574571Y-54874571D01*
X150360286Y-55660286D02*
X150360286Y-56374571D01*
X150860286Y-54874571D02*
X150360286Y-55660286D01*
X149860286Y-54874571D01*
X148646000Y-56374571D02*
X149360286Y-56374571D01*
X149360286Y-54874571D01*
X148146000Y-55588857D02*
X147646000Y-55588857D01*
X147431714Y-56374571D02*
X148146000Y-56374571D01*
X148146000Y-54874571D01*
X147431714Y-54874571D01*
X145931714Y-56374571D02*
X146431714Y-55660286D01*
X146788857Y-56374571D02*
X146788857Y-54874571D01*
X146217429Y-54874571D01*
X146074571Y-54946000D01*
X146003143Y-55017429D01*
X145931714Y-55160286D01*
X145931714Y-55374571D01*
X146003143Y-55517429D01*
X146074571Y-55588857D01*
X146217429Y-55660286D01*
X146788857Y-55660286D01*
X143646000Y-55588857D02*
X143431714Y-55660286D01*
X143360286Y-55731714D01*
X143288857Y-55874571D01*
X143288857Y-56088857D01*
X143360286Y-56231714D01*
X143431714Y-56303143D01*
X143574572Y-56374571D01*
X144146000Y-56374571D01*
X144146000Y-54874571D01*
X143646000Y-54874571D01*
X143503143Y-54946000D01*
X143431714Y-55017429D01*
X143360286Y-55160286D01*
X143360286Y-55303143D01*
X143431714Y-55446000D01*
X143503143Y-55517429D01*
X143646000Y-55588857D01*
X144146000Y-55588857D01*
X142646000Y-54874571D02*
X142646000Y-56088857D01*
X142574572Y-56231714D01*
X142503143Y-56303143D01*
X142360286Y-56374571D01*
X142074572Y-56374571D01*
X141931714Y-56303143D01*
X141860286Y-56231714D01*
X141788857Y-56088857D01*
X141788857Y-54874571D01*
X140360285Y-56374571D02*
X141074571Y-56374571D01*
X141074571Y-54874571D01*
X139860285Y-55588857D02*
X139360285Y-55588857D01*
X139145999Y-56374571D02*
X139860285Y-56374571D01*
X139860285Y-54874571D01*
X139145999Y-54874571D01*
X138574571Y-56303143D02*
X138360285Y-56374571D01*
X138003142Y-56374571D01*
X137860285Y-56303143D01*
X137788856Y-56231714D01*
X137717428Y-56088857D01*
X137717428Y-55946000D01*
X137788856Y-55803143D01*
X137860285Y-55731714D01*
X138003142Y-55660286D01*
X138288856Y-55588857D01*
X138431714Y-55517429D01*
X138503142Y-55446000D01*
X138574571Y-55303143D01*
X138574571Y-55160286D01*
X138503142Y-55017429D01*
X138431714Y-54946000D01*
X138288856Y-54874571D01*
X137931714Y-54874571D01*
X137717428Y-54946000D01*
X151360286Y-57274571D02*
X151360286Y-58346000D01*
X151431714Y-58560286D01*
X151574571Y-58703143D01*
X151788857Y-58774571D01*
X151931714Y-58774571D01*
X150717429Y-58346000D02*
X150003143Y-58346000D01*
X150860286Y-58774571D02*
X150360286Y-57274571D01*
X149860286Y-58774571D01*
X148503143Y-58631714D02*
X148574572Y-58703143D01*
X148788858Y-58774571D01*
X148931715Y-58774571D01*
X149146000Y-58703143D01*
X149288858Y-58560286D01*
X149360286Y-58417429D01*
X149431715Y-58131714D01*
X149431715Y-57917429D01*
X149360286Y-57631714D01*
X149288858Y-57488857D01*
X149146000Y-57346000D01*
X148931715Y-57274571D01*
X148788858Y-57274571D01*
X148574572Y-57346000D01*
X148503143Y-57417429D01*
X147574572Y-57274571D02*
X147288858Y-57274571D01*
X147146000Y-57346000D01*
X147003143Y-57488857D01*
X146931715Y-57774571D01*
X146931715Y-58274571D01*
X147003143Y-58560286D01*
X147146000Y-58703143D01*
X147288858Y-58774571D01*
X147574572Y-58774571D01*
X147717429Y-58703143D01*
X147860286Y-58560286D01*
X147931715Y-58274571D01*
X147931715Y-57774571D01*
X147860286Y-57488857D01*
X147717429Y-57346000D01*
X147574572Y-57274571D01*
X145788857Y-57988857D02*
X145574571Y-58060286D01*
X145503143Y-58131714D01*
X145431714Y-58274571D01*
X145431714Y-58488857D01*
X145503143Y-58631714D01*
X145574571Y-58703143D01*
X145717429Y-58774571D01*
X146288857Y-58774571D01*
X146288857Y-57274571D01*
X145788857Y-57274571D01*
X145646000Y-57346000D01*
X145574571Y-57417429D01*
X145503143Y-57560286D01*
X145503143Y-57703143D01*
X145574571Y-57846000D01*
X145646000Y-57917429D01*
X145788857Y-57988857D01*
X146288857Y-57988857D01*
X143717429Y-58703143D02*
X143503143Y-58774571D01*
X143146000Y-58774571D01*
X143003143Y-58703143D01*
X142931714Y-58631714D01*
X142860286Y-58488857D01*
X142860286Y-58346000D01*
X142931714Y-58203143D01*
X143003143Y-58131714D01*
X143146000Y-58060286D01*
X143431714Y-57988857D01*
X143574572Y-57917429D01*
X143646000Y-57846000D01*
X143717429Y-57703143D01*
X143717429Y-57560286D01*
X143646000Y-57417429D01*
X143574572Y-57346000D01*
X143431714Y-57274571D01*
X143074572Y-57274571D01*
X142860286Y-57346000D01*
X142431715Y-57274571D02*
X141574572Y-57274571D01*
X142003143Y-58774571D02*
X142003143Y-57274571D01*
X141074572Y-57274571D02*
X141074572Y-58488857D01*
X141003144Y-58631714D01*
X140931715Y-58703143D01*
X140788858Y-58774571D01*
X140503144Y-58774571D01*
X140360286Y-58703143D01*
X140288858Y-58631714D01*
X140217429Y-58488857D01*
X140217429Y-57274571D01*
X138646000Y-58774571D02*
X139146000Y-58060286D01*
X139503143Y-58774571D02*
X139503143Y-57274571D01*
X138931715Y-57274571D01*
X138788857Y-57346000D01*
X138717429Y-57417429D01*
X138646000Y-57560286D01*
X138646000Y-57774571D01*
X138717429Y-57917429D01*
X138788857Y-57988857D01*
X138931715Y-58060286D01*
X139503143Y-58060286D01*
X138003143Y-58774571D02*
X138003143Y-57274571D01*
X137503143Y-58346000D01*
X137003143Y-57274571D01*
X137003143Y-58774571D01*
X150931714Y-61031714D02*
X151003143Y-61103143D01*
X151217429Y-61174571D01*
X151360286Y-61174571D01*
X151574571Y-61103143D01*
X151717429Y-60960286D01*
X151788857Y-60817429D01*
X151860286Y-60531714D01*
X151860286Y-60317429D01*
X151788857Y-60031714D01*
X151717429Y-59888857D01*
X151574571Y-59746000D01*
X151360286Y-59674571D01*
X151217429Y-59674571D01*
X151003143Y-59746000D01*
X150931714Y-59817429D01*
X150288857Y-61174571D02*
X150288857Y-59674571D01*
X150288857Y-60388857D02*
X149431714Y-60388857D01*
X149431714Y-61174571D02*
X149431714Y-59674571D01*
X147860285Y-61174571D02*
X148360285Y-60460286D01*
X148717428Y-61174571D02*
X148717428Y-59674571D01*
X148146000Y-59674571D01*
X148003142Y-59746000D01*
X147931714Y-59817429D01*
X147860285Y-59960286D01*
X147860285Y-60174571D01*
X147931714Y-60317429D01*
X148003142Y-60388857D01*
X148146000Y-60460286D01*
X148717428Y-60460286D01*
X147217428Y-61174571D02*
X147217428Y-59674571D01*
X146574571Y-61103143D02*
X146360285Y-61174571D01*
X146003142Y-61174571D01*
X145860285Y-61103143D01*
X145788856Y-61031714D01*
X145717428Y-60888857D01*
X145717428Y-60746000D01*
X145788856Y-60603143D01*
X145860285Y-60531714D01*
X146003142Y-60460286D01*
X146288856Y-60388857D01*
X146431714Y-60317429D01*
X146503142Y-60246000D01*
X146574571Y-60103143D01*
X146574571Y-59960286D01*
X146503142Y-59817429D01*
X146431714Y-59746000D01*
X146288856Y-59674571D01*
X145931714Y-59674571D01*
X145717428Y-59746000D01*
X143431714Y-60388857D02*
X143931714Y-60388857D01*
X143931714Y-61174571D02*
X143931714Y-59674571D01*
X143217428Y-59674571D01*
X142717429Y-60746000D02*
X142003143Y-60746000D01*
X142860286Y-61174571D02*
X142360286Y-59674571D01*
X141860286Y-61174571D01*
X141431715Y-61103143D02*
X141217429Y-61174571D01*
X140860286Y-61174571D01*
X140717429Y-61103143D01*
X140646000Y-61031714D01*
X140574572Y-60888857D01*
X140574572Y-60746000D01*
X140646000Y-60603143D01*
X140717429Y-60531714D01*
X140860286Y-60460286D01*
X141146000Y-60388857D01*
X141288858Y-60317429D01*
X141360286Y-60246000D01*
X141431715Y-60103143D01*
X141431715Y-59960286D01*
X141360286Y-59817429D01*
X141288858Y-59746000D01*
X141146000Y-59674571D01*
X140788858Y-59674571D01*
X140574572Y-59746000D01*
X140146001Y-59674571D02*
X139288858Y-59674571D01*
X139717429Y-61174571D02*
X139717429Y-59674571D01*
X138288858Y-60388857D02*
X138074572Y-60460286D01*
X138003144Y-60531714D01*
X137931715Y-60674571D01*
X137931715Y-60888857D01*
X138003144Y-61031714D01*
X138074572Y-61103143D01*
X138217430Y-61174571D01*
X138788858Y-61174571D01*
X138788858Y-59674571D01*
X138288858Y-59674571D01*
X138146001Y-59746000D01*
X138074572Y-59817429D01*
X138003144Y-59960286D01*
X138003144Y-60103143D01*
X138074572Y-60246000D01*
X138146001Y-60317429D01*
X138288858Y-60388857D01*
X138788858Y-60388857D01*
X137288858Y-61174571D02*
X137288858Y-59674571D01*
X136574572Y-61174571D02*
X136574572Y-59674571D01*
X135717429Y-61174571D01*
X135717429Y-59674571D01*
X135003143Y-61174571D02*
X135003143Y-59674571D01*
X134646000Y-59674571D01*
X134431715Y-59746000D01*
X134288857Y-59888857D01*
X134217429Y-60031714D01*
X134146000Y-60317429D01*
X134146000Y-60531714D01*
X134217429Y-60817429D01*
X134288857Y-60960286D01*
X134431715Y-61103143D01*
X134646000Y-61174571D01*
X135003143Y-61174571D01*
X133503143Y-60388857D02*
X133003143Y-60388857D01*
X132788857Y-61174571D02*
X133503143Y-61174571D01*
X133503143Y-59674571D01*
X132788857Y-59674571D01*
X131288857Y-61174571D02*
X131788857Y-60460286D01*
X132146000Y-61174571D02*
X132146000Y-59674571D01*
X131574572Y-59674571D01*
X131431714Y-59746000D01*
X131360286Y-59817429D01*
X131288857Y-59960286D01*
X131288857Y-60174571D01*
X131360286Y-60317429D01*
X131431714Y-60388857D01*
X131574572Y-60460286D01*
X132146000Y-60460286D01*
D12*
X122396000Y-37040000D02*
X122396000Y-70040000D01*
X105396000Y-37040000D02*
X122396000Y-37040000D01*
X105396000Y-70040000D02*
X105396000Y-37040000D01*
X122396000Y-70040000D02*
X105396000Y-70040000D01*
X142684000Y-20638000D02*
X117684000Y-20638000D01*
X142684000Y-35638000D02*
X142684000Y-20638000D01*
X117684000Y-35638000D02*
X142684000Y-35638000D01*
X117684000Y-20638000D02*
X117684000Y-35638000D01*
X67541001Y-30303425D02*
X66641001Y-30303425D01*
X66641001Y-30303425D02*
X66641001Y-60903425D01*
X67541001Y-30303425D02*
X67541001Y-30903425D01*
X70641001Y-60303425D02*
X67541001Y-60303425D01*
X67541001Y-60303425D02*
X67541001Y-60903425D01*
X67541001Y-60903425D02*
X66641001Y-60903425D01*
X70641001Y-60303425D02*
X71741001Y-60303425D01*
X71741001Y-60303425D02*
X71741001Y-30903425D01*
X71741001Y-30903425D02*
X67541001Y-30903425D01*
X114074571Y-46932858D02*
X112574571Y-46932858D01*
X112574571Y-47504286D01*
X112646000Y-47647144D01*
X112717429Y-47718572D01*
X112860286Y-47790001D01*
X113074571Y-47790001D01*
X113217429Y-47718572D01*
X113288857Y-47647144D01*
X113360286Y-47504286D01*
X113360286Y-46932858D01*
X112574571Y-48290001D02*
X112574571Y-49218572D01*
X113146000Y-48718572D01*
X113146000Y-48932858D01*
X113217429Y-49075715D01*
X113288857Y-49147144D01*
X113431714Y-49218572D01*
X113788857Y-49218572D01*
X113931714Y-49147144D01*
X114003143Y-49075715D01*
X114074571Y-48932858D01*
X114074571Y-48504286D01*
X114003143Y-48361429D01*
X113931714Y-48290001D01*
X127291142Y-28816571D02*
X127291142Y-27316571D01*
X126719714Y-27316571D01*
X126576856Y-27388000D01*
X126505428Y-27459429D01*
X126433999Y-27602286D01*
X126433999Y-27816571D01*
X126505428Y-27959429D01*
X126576856Y-28030857D01*
X126719714Y-28102286D01*
X127291142Y-28102286D01*
X125148285Y-27816571D02*
X125148285Y-28816571D01*
X125505428Y-27245143D02*
X125862571Y-28316571D01*
X124933999Y-28316571D01*
X74349429Y-44631428D02*
X72825429Y-44631428D01*
X72825429Y-44994285D01*
X72898000Y-45212000D01*
X73043143Y-45357142D01*
X73188286Y-45429714D01*
X73478571Y-45502285D01*
X73696286Y-45502285D01*
X73986571Y-45429714D01*
X74131714Y-45357142D01*
X74276857Y-45212000D01*
X74349429Y-44994285D01*
X74349429Y-44631428D01*
X74349429Y-46953714D02*
X74349429Y-46082857D01*
X74349429Y-46518285D02*
X72825429Y-46518285D01*
X73043143Y-46373142D01*
X73188286Y-46228000D01*
X73260857Y-46082857D01*
X72825429Y-47897143D02*
X72825429Y-48042286D01*
X72898000Y-48187429D01*
X72970571Y-48260000D01*
X73115714Y-48332571D01*
X73406000Y-48405143D01*
X73768857Y-48405143D01*
X74059143Y-48332571D01*
X74204286Y-48260000D01*
X74276857Y-48187429D01*
X74349429Y-48042286D01*
X74349429Y-47897143D01*
X74276857Y-47752000D01*
X74204286Y-47679429D01*
X74059143Y-47606857D01*
X73768857Y-47534286D01*
X73406000Y-47534286D01*
X73115714Y-47606857D01*
X72970571Y-47679429D01*
X72898000Y-47752000D01*
X72825429Y-47897143D01*
M02*
