G04 #@! TF.FileFunction,Copper,L2,Bot,Signal*
%FSLAX46Y46*%
G04 Gerber Fmt 4.6, Leading zero omitted, Abs format (unit mm)*
G04 Created by KiCad (PCBNEW (2014-12-04 BZR 5312)-product) date 2/1/2015 4:03:18 PM*
%MOMM*%
G01*
G04 APERTURE LIST*
%ADD10C,0.100000*%
%ADD11C,1.905000*%
%ADD12C,1.501140*%
%ADD13C,2.000000*%
%ADD14C,1.500000*%
%ADD15C,2.500000*%
%ADD16R,1.200000X0.300000*%
%ADD17R,2.400000X2.400000*%
%ADD18C,2.032000*%
%ADD19O,1.250000X0.950000*%
%ADD20O,1.000000X1.550000*%
%ADD21R,1.727200X1.727200*%
%ADD22O,1.727200X1.727200*%
%ADD23C,1.524000*%
%ADD24C,0.685800*%
%ADD25C,0.889000*%
%ADD26C,0.914400*%
%ADD27C,0.304800*%
%ADD28C,0.609600*%
G04 APERTURE END LIST*
D10*
D11*
X120396000Y-66040000D03*
X117856000Y-66040000D03*
X115316000Y-66040000D03*
X112776000Y-66040000D03*
X120396000Y-68580000D03*
X117856000Y-68580000D03*
X115316000Y-68580000D03*
X112776000Y-68580000D03*
D12*
X96774000Y-51407060D03*
X96774000Y-56288940D03*
D13*
X117094000Y-60158000D03*
X117094000Y-55158000D03*
D11*
X141224000Y-24638000D03*
X138684000Y-24638000D03*
X141224000Y-27178000D03*
X138684000Y-27178000D03*
X141224000Y-29718000D03*
X138684000Y-29718000D03*
X141224000Y-32258000D03*
X138684000Y-32258000D03*
D14*
X138938000Y-67036000D03*
X138938000Y-64536000D03*
D15*
X112776000Y-49784000D03*
X112776000Y-37784000D03*
X124976000Y-37784000D03*
X124976000Y-49784000D03*
X110776000Y-43784000D03*
X81026000Y-38608000D03*
X69026000Y-38608000D03*
X69026000Y-26408000D03*
X81026000Y-26408000D03*
X75026000Y-40608000D03*
D16*
X72041001Y-57853425D03*
X72041001Y-57353425D03*
X72041001Y-56853425D03*
X72041001Y-56353425D03*
X72041001Y-55853425D03*
X72041001Y-55353425D03*
X72041001Y-54853425D03*
X72041001Y-54353425D03*
X72041001Y-53853425D03*
X72041001Y-53353425D03*
X72041001Y-52853425D03*
X72041001Y-52353425D03*
X72041001Y-51853425D03*
X72041001Y-51353425D03*
X72041001Y-50853425D03*
X72041001Y-50353425D03*
X72041001Y-49853425D03*
X72041001Y-49353425D03*
X72041001Y-48853425D03*
X72041001Y-48353425D03*
X72041001Y-47853425D03*
X72041001Y-47353425D03*
X72041001Y-46853425D03*
X72041001Y-46353425D03*
X72041001Y-45853425D03*
X72041001Y-45353425D03*
X72041001Y-44853425D03*
X72041001Y-44353425D03*
X72041001Y-43853425D03*
X72041001Y-43353425D03*
X72041001Y-42853425D03*
X72041001Y-42353425D03*
X72041001Y-41853425D03*
X72041001Y-41353425D03*
X72041001Y-40853425D03*
X72041001Y-40353425D03*
X72041001Y-39853425D03*
X72041001Y-39353425D03*
X72041001Y-38853425D03*
X72041001Y-38353425D03*
X72041001Y-37853425D03*
X72041001Y-37353425D03*
X72041001Y-36853425D03*
X72041001Y-36353425D03*
X72041001Y-35853425D03*
X72041001Y-35353425D03*
X72041001Y-34853425D03*
X72041001Y-34353425D03*
X72041001Y-33853425D03*
X72041001Y-33353425D03*
D17*
X69341001Y-59953425D03*
X69341001Y-31253425D03*
D15*
X145542000Y-38608000D03*
X133542000Y-38608000D03*
X133542000Y-26408000D03*
X145542000Y-26408000D03*
X139542000Y-40608000D03*
D18*
X101346000Y-43942000D03*
X101346000Y-49022000D03*
X101346000Y-54102000D03*
X101346000Y-38862000D03*
X85598000Y-29210000D03*
X85598000Y-34290000D03*
X85598000Y-39370000D03*
X85598000Y-24130000D03*
X150114000Y-29210000D03*
X150114000Y-34290000D03*
X150114000Y-39370000D03*
X150114000Y-24130000D03*
D19*
X76270000Y-65786000D03*
X81270000Y-65786000D03*
D20*
X75270000Y-68486000D03*
X82270000Y-68486000D03*
D18*
X106680000Y-30480000D03*
X111760000Y-30480000D03*
X101600000Y-30480000D03*
X116840000Y-30480000D03*
X96520000Y-30480000D03*
X91440000Y-30480000D03*
X121920000Y-30480000D03*
X127000000Y-30480000D03*
D21*
X92202000Y-65532000D03*
D22*
X92202000Y-68072000D03*
X89662000Y-65532000D03*
X89662000Y-68072000D03*
X87122000Y-65532000D03*
X87122000Y-68072000D03*
D23*
X107696000Y-60960000D03*
X110236000Y-58420000D03*
X110236000Y-63500000D03*
D24*
X111760000Y-34036000D03*
X124714000Y-34036000D03*
X98806000Y-34036000D03*
D25*
X110236000Y-48514000D03*
D24*
X70358000Y-68326000D03*
X78905110Y-50292000D03*
X75184000Y-55372000D03*
X93472000Y-44958000D03*
X138684000Y-21590000D03*
X110236000Y-60198000D03*
X98711599Y-64243737D03*
X90551000Y-46937848D03*
X99568000Y-24130000D03*
X131657154Y-45212000D03*
X108204000Y-40131617D03*
X113030000Y-40132000D03*
X113030000Y-45212000D03*
X136144000Y-45212000D03*
X67437000Y-55118000D03*
X72136000Y-32512000D03*
X72136000Y-24130000D03*
X131572000Y-58166000D03*
X70866000Y-36830000D03*
X74930000Y-34290000D03*
X134874000Y-35306000D03*
X146304000Y-35306000D03*
X115062000Y-32512000D03*
X115062000Y-40132000D03*
X147828000Y-40640000D03*
X112522000Y-54356000D03*
X75946000Y-42672000D03*
X138938000Y-50038000D03*
X128270000Y-50038000D03*
X127762000Y-55118000D03*
X117094000Y-41402000D03*
X92456000Y-41402000D03*
X86868000Y-60706000D03*
X76454000Y-59436000D03*
X74899106Y-62992000D03*
X76454000Y-64516000D03*
X80010000Y-59944000D03*
X80264000Y-58674000D03*
X93980000Y-64516000D03*
X95510057Y-35306000D03*
X92461385Y-45979385D03*
X74168000Y-32766000D03*
X70868575Y-54353425D03*
X89364474Y-49119355D03*
X80518000Y-47752000D03*
X140716000Y-38608000D03*
X106596000Y-57066000D03*
X108966000Y-57150000D03*
X108966000Y-64262000D03*
X121920000Y-64516000D03*
X129794000Y-64516000D03*
X129794000Y-51562000D03*
X133604000Y-51562000D03*
X112776000Y-35306000D03*
X133350000Y-35306000D03*
D25*
X144018000Y-64516000D03*
D24*
X95504000Y-44704000D03*
X90678000Y-43942000D03*
X88646000Y-43942000D03*
X83058000Y-43942000D03*
X137213340Y-55196740D03*
X133858000Y-58166000D03*
X70612000Y-57912000D03*
X67564000Y-56388000D03*
X76073000Y-44069000D03*
X76200000Y-53340000D03*
X84963000Y-42672000D03*
X69219357Y-50931357D03*
X72517000Y-66929000D03*
X109982000Y-65532000D03*
X109728000Y-70104000D03*
X89154000Y-61722000D03*
X87122000Y-61722000D03*
X83566000Y-64135000D03*
X71501000Y-60198000D03*
X68199000Y-52832000D03*
X89662000Y-70104000D03*
X90170000Y-53975000D03*
X75509118Y-54013110D03*
X75184000Y-43649910D03*
X88252000Y-63665089D03*
X97536000Y-64243728D03*
X97790000Y-68834000D03*
X88265000Y-49164702D03*
X78994000Y-48768000D03*
X78905110Y-38989000D03*
X89408000Y-53086000D03*
X76796890Y-38100000D03*
X76962000Y-52705000D03*
X83312000Y-37211000D03*
X77470000Y-36652220D03*
X77470000Y-51943000D03*
X78994000Y-52070000D03*
X78232000Y-35979110D03*
X84074000Y-35306000D03*
X84074000Y-37846000D03*
X87884000Y-40386000D03*
X106680000Y-50038000D03*
X81534000Y-55880000D03*
X117856000Y-62484000D03*
X82296000Y-57150000D03*
X111506000Y-61722000D03*
X132080000Y-23368000D03*
X129794000Y-47332890D03*
X90170000Y-51308000D03*
X85940890Y-54648110D03*
X125730000Y-22606000D03*
X127000000Y-51562000D03*
X87591890Y-57912000D03*
X84328000Y-50546000D03*
X128936215Y-46824890D03*
X129540000Y-28956000D03*
X120904000Y-32512000D03*
X120904000Y-56896000D03*
X107950000Y-56134000D03*
X107950000Y-58166000D03*
X83058000Y-56388000D03*
X128016000Y-46228000D03*
X128778000Y-29718000D03*
X87591890Y-50038000D03*
X130556000Y-48006000D03*
X131572000Y-32258000D03*
X89154000Y-52070000D03*
X84074000Y-55118000D03*
X108712000Y-52324000D03*
X86614000Y-44958000D03*
X89154000Y-44958000D03*
X143764000Y-36322000D03*
X89154000Y-37846000D03*
X97790000Y-63246000D03*
X68580000Y-62230000D03*
X83566000Y-60960000D03*
X77724000Y-60452000D03*
X83566000Y-62230000D03*
X81280000Y-62992000D03*
X86724461Y-56896000D03*
X86614000Y-51562000D03*
X81534000Y-51054000D03*
X100584000Y-59182000D03*
D26*
X111760000Y-34036000D02*
X124714000Y-34036000D01*
X111760000Y-34036000D02*
X98806000Y-34036000D01*
X110236000Y-48514000D02*
X101854000Y-48514000D01*
X101854000Y-48514000D02*
X101346000Y-49022000D01*
D27*
X70358000Y-68326000D02*
X75110000Y-68326000D01*
X75110000Y-68326000D02*
X75270000Y-68486000D01*
X79502000Y-45720000D02*
X89333152Y-45720000D01*
X89333152Y-45720000D02*
X90551000Y-46937848D01*
X78320899Y-46901101D02*
X79502000Y-45720000D01*
X78905110Y-50292000D02*
X78420177Y-50292000D01*
X78420177Y-50292000D02*
X78320899Y-50192722D01*
X78320899Y-50192722D02*
X78320899Y-46901101D01*
X75184000Y-55372000D02*
X72059576Y-55372000D01*
X72059576Y-55372000D02*
X72041001Y-55353425D01*
D28*
X87122000Y-68072000D02*
X82684000Y-68072000D01*
X82684000Y-68072000D02*
X82270000Y-68486000D01*
D27*
X90551000Y-46937848D02*
X92530848Y-44958000D01*
X92530848Y-44958000D02*
X93472000Y-44958000D01*
D26*
X138684000Y-21590000D02*
X147574000Y-21590000D01*
X147574000Y-21590000D02*
X150114000Y-24130000D01*
X117094000Y-60158000D02*
X110276000Y-60158000D01*
X110276000Y-60158000D02*
X110236000Y-60198000D01*
X120396000Y-68580000D02*
X137394000Y-68580000D01*
X137394000Y-68580000D02*
X138938000Y-67036000D01*
D27*
X110236000Y-63500000D02*
X99455336Y-63500000D01*
X99455336Y-63500000D02*
X98711599Y-64243737D01*
D26*
X85598000Y-24130000D02*
X99568000Y-24130000D01*
X136144000Y-45212000D02*
X131657154Y-45212000D01*
X131657154Y-45212000D02*
X113030000Y-45212000D01*
X108204383Y-40132000D02*
X108204000Y-40131617D01*
X113030000Y-40132000D02*
X108204383Y-40132000D01*
D27*
X67437000Y-55118000D02*
X67921933Y-55118000D01*
X67921933Y-55118000D02*
X68157358Y-55353425D01*
X68157358Y-55353425D02*
X71136201Y-55353425D01*
X71136201Y-55353425D02*
X72041001Y-55353425D01*
D26*
X72136000Y-32512000D02*
X72136000Y-33758426D01*
X72136000Y-33758426D02*
X72041001Y-33853425D01*
X85598000Y-24130000D02*
X72136000Y-24130000D01*
D27*
X72041001Y-33853425D02*
X72041001Y-34297024D01*
X72041001Y-33353425D02*
X72041001Y-33853425D01*
X72041001Y-55353425D02*
X70339425Y-55353425D01*
X82270000Y-68761000D02*
X82270000Y-68486000D01*
D26*
X119086000Y-58166000D02*
X117094000Y-60158000D01*
X130556000Y-58166000D02*
X119086000Y-58166000D01*
X130556000Y-58166000D02*
X131572000Y-58166000D01*
D27*
X71136201Y-36853425D02*
X72041001Y-36853425D01*
X70866000Y-36583224D02*
X71136201Y-36853425D01*
X70866000Y-34036000D02*
X70866000Y-36583224D01*
X71048575Y-33853425D02*
X70866000Y-34036000D01*
X72041001Y-33853425D02*
X71048575Y-33853425D01*
X70889425Y-36853425D02*
X70866000Y-36830000D01*
X71136201Y-36853425D02*
X70889425Y-36853425D01*
D26*
X71828000Y-29210000D02*
X69026000Y-26408000D01*
X85598000Y-29210000D02*
X71828000Y-29210000D01*
X105664001Y-29464001D02*
X106680000Y-30480000D01*
X103124000Y-26924000D02*
X105664001Y-29464001D01*
X87884000Y-26924000D02*
X103124000Y-26924000D01*
X85598000Y-29210000D02*
X87884000Y-26924000D01*
X74930000Y-34290000D02*
X85598000Y-34290000D01*
X146304000Y-35306000D02*
X134874000Y-35306000D01*
X120912000Y-26408000D02*
X116840000Y-30480000D01*
X133542000Y-26408000D02*
X120912000Y-26408000D01*
X115062000Y-32512000D02*
X103632000Y-32512000D01*
X118332000Y-40608000D02*
X117856000Y-40132000D01*
X117856000Y-40132000D02*
X115062000Y-40132000D01*
X139542000Y-40608000D02*
X118332000Y-40608000D01*
X147828000Y-40640000D02*
X139574000Y-40640000D01*
X139574000Y-40640000D02*
X139542000Y-40608000D01*
X103632000Y-32512000D02*
X101600000Y-30480000D01*
X112522000Y-54356000D02*
X116292000Y-54356000D01*
X116292000Y-54356000D02*
X117094000Y-55158000D01*
X75946000Y-42672000D02*
X77216000Y-41402000D01*
X77216000Y-41402000D02*
X77470000Y-41402000D01*
X77470000Y-41402000D02*
X77343000Y-41402000D01*
X77470000Y-41402000D02*
X92456000Y-41402000D01*
X138938000Y-50038000D02*
X128270000Y-50038000D01*
X117134000Y-55118000D02*
X117094000Y-55158000D01*
X127762000Y-55118000D02*
X117134000Y-55118000D01*
X117094000Y-41402000D02*
X92456000Y-41402000D01*
D27*
X80010000Y-59944000D02*
X86106000Y-59944000D01*
X86106000Y-59944000D02*
X86868000Y-60706000D01*
X80010000Y-59944000D02*
X79248000Y-59182000D01*
X79248000Y-59182000D02*
X76708000Y-59182000D01*
X76708000Y-59182000D02*
X76454000Y-59436000D01*
X76454000Y-64516000D02*
X76423106Y-64516000D01*
X76423106Y-64516000D02*
X74899106Y-62992000D01*
X72041001Y-54353425D02*
X72945801Y-54353425D01*
X72945801Y-54353425D02*
X73291275Y-54698899D01*
X73291275Y-54698899D02*
X76288899Y-54698899D01*
X76288899Y-54698899D02*
X77635101Y-56045101D01*
X77635101Y-56045101D02*
X80264000Y-58674000D01*
X93980000Y-64516000D02*
X94380838Y-64916838D01*
X94380838Y-64916838D02*
X108311162Y-64916838D01*
X108311162Y-64916838D02*
X108623101Y-64604899D01*
X108623101Y-64604899D02*
X108966000Y-64262000D01*
D26*
X112776000Y-35306000D02*
X95510057Y-35306000D01*
X95510057Y-35306000D02*
X90170000Y-35306000D01*
D27*
X89364474Y-49119355D02*
X92461385Y-46022444D01*
X92461385Y-46022444D02*
X92461385Y-45979385D01*
D26*
X90170000Y-35306000D02*
X87502999Y-32638999D01*
X87502999Y-32638999D02*
X74295001Y-32638999D01*
X74295001Y-32638999D02*
X74168000Y-32766000D01*
D27*
X80518000Y-47752000D02*
X87997119Y-47752000D01*
X87997119Y-47752000D02*
X89364474Y-49119355D01*
D26*
X133542000Y-38608000D02*
X140716000Y-38608000D01*
D27*
X108966000Y-64262000D02*
X109474000Y-64770000D01*
X109474000Y-64770000D02*
X110744000Y-64770000D01*
X110744000Y-64770000D02*
X112014000Y-63500000D01*
X112014000Y-63500000D02*
X120904000Y-63500000D01*
X120904000Y-63500000D02*
X121920000Y-64516000D01*
X108966000Y-57150000D02*
X106680000Y-57150000D01*
X106680000Y-57150000D02*
X106596000Y-57066000D01*
D26*
X129794000Y-64516000D02*
X121920000Y-64516000D01*
X133350000Y-35306000D02*
X131367402Y-35306000D01*
X131367402Y-35306000D02*
X112776000Y-35306000D01*
X129794000Y-64516000D02*
X138918000Y-64516000D01*
X138918000Y-64516000D02*
X138938000Y-64536000D01*
X133604000Y-51562000D02*
X129794000Y-51562000D01*
D27*
X70866000Y-38535766D02*
X70866000Y-39370000D01*
X70866000Y-39370000D02*
X67437000Y-42799000D01*
X67437000Y-42799000D02*
X67437000Y-53213000D01*
X67437000Y-53213000D02*
X68580000Y-54356000D01*
X68580000Y-54356000D02*
X70866000Y-54356000D01*
X70866000Y-54356000D02*
X70868575Y-54353425D01*
X70868575Y-54353425D02*
X72041001Y-54353425D01*
X68326000Y-39178000D02*
X68518000Y-39370000D01*
X72041001Y-37853425D02*
X72041001Y-38297024D01*
X72041001Y-37853425D02*
X72041001Y-37409826D01*
X72033576Y-37846000D02*
X72041001Y-37853425D01*
X72041001Y-54353425D02*
X72041001Y-54797024D01*
X72041001Y-54353425D02*
X72041001Y-53909826D01*
X72038426Y-54356000D02*
X72041001Y-54353425D01*
D26*
X138938000Y-64536000D02*
X143998000Y-64536000D01*
X143998000Y-64536000D02*
X144018000Y-64516000D01*
D27*
X71136201Y-37853425D02*
X70866000Y-38123626D01*
X72041001Y-37853425D02*
X71136201Y-37853425D01*
X70793766Y-38608000D02*
X69026000Y-38608000D01*
X70866000Y-38535766D02*
X70793766Y-38608000D01*
X70866000Y-38123626D02*
X70866000Y-38535766D01*
D26*
X94742000Y-43942000D02*
X95504000Y-44704000D01*
X90678000Y-43942000D02*
X94742000Y-43942000D01*
X83058000Y-43942000D02*
X88646000Y-43942000D01*
X133858000Y-58166000D02*
X134244080Y-58166000D01*
X134244080Y-58166000D02*
X137213340Y-55196740D01*
D27*
X70612000Y-57912000D02*
X72038827Y-57912000D01*
X72038827Y-57912000D02*
X72041001Y-57909826D01*
X72041001Y-56853425D02*
X72041001Y-57297024D01*
X72041001Y-56853425D02*
X72041001Y-56353425D01*
X72041001Y-56353425D02*
X72041001Y-55909826D01*
X72041001Y-55909826D02*
X68042174Y-55909826D01*
X68042174Y-55909826D02*
X67564000Y-56388000D01*
X76073000Y-44069000D02*
X81817435Y-44069000D01*
X75057000Y-53340000D02*
X76200000Y-53340000D01*
X75057000Y-53340000D02*
X72054426Y-53340000D01*
X72054426Y-53340000D02*
X72041001Y-53353425D01*
X84963000Y-42672000D02*
X83214435Y-42672000D01*
X83214435Y-42672000D02*
X81817435Y-44069000D01*
X69013369Y-43127631D02*
X69013369Y-50725369D01*
X69013369Y-50725369D02*
X69219357Y-50931357D01*
X69013369Y-43127631D02*
X68961000Y-43180000D01*
X70287575Y-41853425D02*
X69013369Y-43127631D01*
X99314000Y-68580000D02*
X96266000Y-65532000D01*
X96266000Y-65532000D02*
X92202000Y-65532000D01*
X112776000Y-68580000D02*
X99314000Y-68580000D01*
X83693000Y-66929000D02*
X86283801Y-64338199D01*
X86283801Y-64338199D02*
X92176599Y-64338199D01*
X92176599Y-64338199D02*
X92202000Y-64363600D01*
X92202000Y-64363600D02*
X92202000Y-65532000D01*
X72517000Y-66929000D02*
X83693000Y-66929000D01*
X72041001Y-41853425D02*
X70287575Y-41853425D01*
X109982000Y-65532000D02*
X110998000Y-65532000D01*
X110998000Y-65532000D02*
X112268000Y-64262000D01*
X112268000Y-64262000D02*
X113538000Y-64262000D01*
X113538000Y-64262000D02*
X115316000Y-66040000D01*
X89662000Y-70104000D02*
X109728000Y-70104000D01*
X87122000Y-61722000D02*
X89154000Y-61722000D01*
X68199000Y-44290626D02*
X68199000Y-44538787D01*
X68199000Y-44538787D02*
X68199000Y-52832000D01*
X72041001Y-41353425D02*
X69898575Y-41353425D01*
X69898575Y-41353425D02*
X68199000Y-43053000D01*
X68199000Y-43053000D02*
X68199000Y-44538787D01*
X75946000Y-60198000D02*
X79883000Y-64135000D01*
X79883000Y-64135000D02*
X83566000Y-64135000D01*
X71501000Y-60198000D02*
X75946000Y-60198000D01*
X89662000Y-68072000D02*
X89662000Y-70104000D01*
X81249030Y-53975000D02*
X81210920Y-54013110D01*
X81210920Y-54013110D02*
X75509118Y-54013110D01*
X90170000Y-53975000D02*
X81249030Y-53975000D01*
X90131890Y-54013110D02*
X90170000Y-53975000D01*
X74243302Y-42164000D02*
X74243302Y-42709212D01*
X74243302Y-42709212D02*
X75184000Y-43649910D01*
X72041001Y-40353425D02*
X72945801Y-40353425D01*
X72945801Y-40353425D02*
X73445799Y-40853423D01*
X73445799Y-40853423D02*
X73445799Y-41366497D01*
X73445799Y-41366497D02*
X74243302Y-42164000D01*
X97536000Y-64243728D02*
X96957361Y-63665089D01*
X96957361Y-63665089D02*
X88252000Y-63665089D01*
X87233298Y-49164702D02*
X86779101Y-49618899D01*
X86779101Y-49618899D02*
X79844899Y-49618899D01*
X79844899Y-49618899D02*
X79336899Y-49110899D01*
X79336899Y-49110899D02*
X78994000Y-48768000D01*
X88265000Y-49164702D02*
X87233298Y-49164702D01*
X97790000Y-68834000D02*
X98386899Y-69430899D01*
X98386899Y-69430899D02*
X110832899Y-69430899D01*
X110832899Y-69430899D02*
X111506000Y-70104000D01*
X111506000Y-70104000D02*
X114808000Y-70104000D01*
X114808000Y-70104000D02*
X115316000Y-69596000D01*
X115316000Y-69596000D02*
X115316000Y-68580000D01*
X73634610Y-39141390D02*
X73787000Y-38989000D01*
X73787000Y-38989000D02*
X78905110Y-38989000D01*
X73634610Y-39347129D02*
X73634610Y-39141390D01*
X72041001Y-39853425D02*
X73128314Y-39853425D01*
X73128314Y-39853425D02*
X73634610Y-39347129D01*
X77304899Y-53047899D02*
X89369899Y-53047899D01*
X89369899Y-53047899D02*
X89408000Y-53086000D01*
X73152000Y-37846000D02*
X76542890Y-37846000D01*
X76542890Y-37846000D02*
X76796890Y-38100000D01*
X73152000Y-39147226D02*
X73152000Y-37846000D01*
X72041001Y-39353425D02*
X72945801Y-39353425D01*
X72945801Y-39353425D02*
X73152000Y-39147226D01*
X76962000Y-52705000D02*
X77304899Y-53047899D01*
X72041001Y-36353425D02*
X73437425Y-36353425D01*
X73437425Y-36353425D02*
X74409321Y-37325321D01*
X74409321Y-37325321D02*
X77863679Y-37325321D01*
X77863679Y-37325321D02*
X78359000Y-36830000D01*
X78359000Y-36830000D02*
X82446067Y-36830000D01*
X82446067Y-36830000D02*
X82827067Y-37211000D01*
X82827067Y-37211000D02*
X83312000Y-37211000D01*
X74498220Y-36652220D02*
X73699425Y-35853425D01*
X73699425Y-35853425D02*
X72041001Y-35853425D01*
X77470000Y-36652220D02*
X74498220Y-36652220D01*
X78994000Y-52070000D02*
X77597000Y-52070000D01*
X77597000Y-52070000D02*
X77470000Y-51943000D01*
X74587110Y-35979110D02*
X73961425Y-35353425D01*
X73961425Y-35353425D02*
X72041001Y-35353425D01*
X78232000Y-35979110D02*
X74587110Y-35979110D01*
X84074000Y-35306000D02*
X74676000Y-35306000D01*
X74676000Y-35306000D02*
X74223425Y-34853425D01*
X74223425Y-34853425D02*
X72041001Y-34853425D01*
X87884000Y-40386000D02*
X87884000Y-39663622D01*
X87884000Y-39663622D02*
X86066378Y-37846000D01*
X86066378Y-37846000D02*
X84074000Y-37846000D01*
D26*
X112522000Y-50038000D02*
X112776000Y-49784000D01*
X106680000Y-50038000D02*
X112522000Y-50038000D01*
D27*
X88944685Y-59067711D02*
X83217521Y-59067711D01*
X83217521Y-59067711D02*
X81534000Y-57384190D01*
X81534000Y-57384190D02*
X81534000Y-56364933D01*
X81534000Y-56364933D02*
X81534000Y-55880000D01*
X92621101Y-61048899D02*
X90925873Y-61048899D01*
X90925873Y-61048899D02*
X88944685Y-59067711D01*
X109131101Y-62572899D02*
X94145101Y-62572899D01*
X117856000Y-62484000D02*
X110836458Y-62484000D01*
X110836458Y-62484000D02*
X110760257Y-62407799D01*
X110760257Y-62407799D02*
X109296201Y-62407799D01*
X109296201Y-62407799D02*
X109131101Y-62572899D01*
X94145101Y-62572899D02*
X92621101Y-61048899D01*
X92821004Y-60566289D02*
X91125776Y-60566289D01*
X91125776Y-60566289D02*
X89144588Y-58585101D01*
X89144588Y-58585101D02*
X83731101Y-58585101D01*
X83731101Y-58585101D02*
X82638899Y-57492899D01*
X82638899Y-57492899D02*
X82296000Y-57150000D01*
X111506000Y-61722000D02*
X109299487Y-61722000D01*
X109299487Y-61722000D02*
X108931198Y-62090289D01*
X108931198Y-62090289D02*
X94345003Y-62090289D01*
X94345003Y-62090289D02*
X92821004Y-60566289D01*
X141047038Y-23114000D02*
X132365573Y-23114000D01*
X132080000Y-23368000D02*
X132334000Y-23114000D01*
X132334000Y-23114000D02*
X132365573Y-23114000D01*
X128524000Y-47498000D02*
X129628890Y-47498000D01*
X129628890Y-47498000D02*
X129794000Y-47332890D01*
X141224000Y-24638000D02*
X141224000Y-23290962D01*
X141224000Y-23290962D02*
X141047038Y-23114000D01*
X112599931Y-47498000D02*
X128524000Y-47498000D01*
X94234000Y-46990000D02*
X112091931Y-46990000D01*
X112091931Y-46990000D02*
X112599931Y-47498000D01*
X93472000Y-47752000D02*
X94234000Y-46990000D01*
X93472000Y-47752000D02*
X90170000Y-51054000D01*
X90170000Y-51054000D02*
X90170000Y-51308000D01*
X85940890Y-54648110D02*
X90049134Y-54648110D01*
X125730000Y-22606000D02*
X128578085Y-22606000D01*
X128578085Y-22606000D02*
X128590786Y-22618701D01*
X128590786Y-22618701D02*
X142506701Y-22618701D01*
X142506701Y-22618701D02*
X142506701Y-25895299D01*
X142506701Y-25895299D02*
X141224000Y-27178000D01*
X126746000Y-51562000D02*
X127000000Y-51562000D01*
X108477810Y-51562000D02*
X126746000Y-51562000D01*
X100104707Y-57200780D02*
X102839030Y-57200780D01*
X102839030Y-57200780D02*
X108477810Y-51562000D01*
X95091024Y-59690000D02*
X97615488Y-59690000D01*
X97615488Y-59690000D02*
X100104707Y-57200780D01*
X90049134Y-54648110D02*
X95091024Y-59690000D01*
X84328000Y-50546000D02*
X86614000Y-50546000D01*
X86614000Y-50546000D02*
X87122000Y-51054000D01*
X87122000Y-51054000D02*
X89154000Y-51054000D01*
X89154000Y-51054000D02*
X93700610Y-46507390D01*
X93700610Y-46507390D02*
X112291833Y-46507390D01*
X112291833Y-46507390D02*
X112774443Y-46990000D01*
X112774443Y-46990000D02*
X128771105Y-46990000D01*
X128771105Y-46990000D02*
X128936215Y-46824890D01*
X138684000Y-27178000D02*
X136906000Y-28956000D01*
X136906000Y-28956000D02*
X129540000Y-28956000D01*
X112774443Y-46990000D02*
X112905601Y-46990000D01*
X141224000Y-29718000D02*
X143002000Y-31496000D01*
X143002000Y-31496000D02*
X143002000Y-33020000D01*
X143002000Y-33020000D02*
X141986000Y-34036000D01*
X141986000Y-34036000D02*
X126746000Y-34036000D01*
X126746000Y-34036000D02*
X125222000Y-32512000D01*
X125222000Y-32512000D02*
X120904000Y-32512000D01*
X116863302Y-56896000D02*
X120904000Y-56896000D01*
X107950000Y-56134000D02*
X108292899Y-56476899D01*
X108292899Y-56476899D02*
X116444201Y-56476899D01*
X116444201Y-56476899D02*
X116863302Y-56896000D01*
X98044000Y-60706000D02*
X100584000Y-58166000D01*
X100584000Y-58166000D02*
X107950000Y-58166000D01*
X97536000Y-60706000D02*
X98044000Y-60706000D01*
X97536000Y-60706000D02*
X94742000Y-60706000D01*
X94742000Y-60706000D02*
X93383101Y-59347101D01*
X93383101Y-59347101D02*
X91605101Y-59347101D01*
X91605101Y-59347101D02*
X88138000Y-55880000D01*
X88138000Y-55880000D02*
X83566000Y-55880000D01*
X83566000Y-55880000D02*
X83058000Y-56388000D01*
X128016000Y-46228000D02*
X127736610Y-46507390D01*
X127736610Y-46507390D02*
X127482610Y-46507390D01*
X112974346Y-46507390D02*
X127482610Y-46507390D01*
X112974346Y-46507390D02*
X112999736Y-46482000D01*
X138684000Y-29718000D02*
X128778000Y-29718000D01*
X87591890Y-50038000D02*
X89487488Y-50038000D01*
X89487488Y-50038000D02*
X93500707Y-46024780D01*
X93500707Y-46024780D02*
X112491736Y-46024780D01*
X112491736Y-46024780D02*
X112974346Y-46507390D01*
X112974346Y-46507390D02*
X113055390Y-46507390D01*
X130556000Y-48006000D02*
X112425418Y-48006000D01*
X112425418Y-48006000D02*
X111917418Y-47498000D01*
X111917418Y-47498000D02*
X95758000Y-47498000D01*
X95758000Y-47498000D02*
X91186000Y-52070000D01*
X91186000Y-52070000D02*
X90678000Y-52070000D01*
X90678000Y-52070000D02*
X89154000Y-52070000D01*
X138684000Y-32258000D02*
X131572000Y-32258000D01*
X88312512Y-55372000D02*
X84328000Y-55372000D01*
X84328000Y-55372000D02*
X84074000Y-55118000D01*
X92630512Y-57912000D02*
X90852512Y-57912000D01*
X90852512Y-57912000D02*
X88312512Y-55372000D01*
X97790000Y-60198000D02*
X94916512Y-60198000D01*
X94916512Y-60198000D02*
X92630512Y-57912000D01*
X100304610Y-57683390D02*
X97790000Y-60198000D01*
X103378000Y-57658000D02*
X103352610Y-57683390D01*
X103352610Y-57683390D02*
X100304610Y-57683390D01*
X105156000Y-55880000D02*
X103378000Y-57658000D01*
X108712000Y-52324000D02*
X105156000Y-55880000D01*
X89154000Y-44958000D02*
X86614000Y-44958000D01*
X132706201Y-36203799D02*
X143645799Y-36203799D01*
X143645799Y-36203799D02*
X143764000Y-36322000D01*
X89154000Y-37846000D02*
X90796201Y-36203799D01*
X90796201Y-36203799D02*
X132706201Y-36203799D01*
X97790000Y-63246000D02*
X97220785Y-63246000D01*
X97220785Y-63246000D02*
X97030294Y-63055509D01*
X97030294Y-63055509D02*
X88638610Y-63055509D01*
X88638610Y-63055509D02*
X88321101Y-62738000D01*
X88321101Y-62738000D02*
X87201488Y-62738000D01*
X76962000Y-62230000D02*
X79540101Y-64808101D01*
X79540101Y-64808101D02*
X85131387Y-64808101D01*
X85131387Y-64808101D02*
X87201488Y-62738000D01*
X68580000Y-62230000D02*
X76962000Y-62230000D01*
X79004636Y-62217569D02*
X82308431Y-62217569D01*
X82308431Y-62217569D02*
X83566000Y-60960000D01*
X77724000Y-60936933D02*
X79004636Y-62217569D01*
X77724000Y-60452000D02*
X77724000Y-60936933D01*
X81280000Y-62992000D02*
X81941228Y-62992000D01*
X83081067Y-62230000D02*
X82319067Y-62992000D01*
X83566000Y-62230000D02*
X83081067Y-62230000D01*
X82319067Y-62992000D02*
X81941228Y-62992000D01*
X86724461Y-56896000D02*
X88138000Y-56896000D01*
X86106000Y-51308000D02*
X86360000Y-51308000D01*
X86360000Y-51308000D02*
X86614000Y-51562000D01*
X88138000Y-56896000D02*
X91325679Y-60083679D01*
X91325679Y-60083679D02*
X93103679Y-60083679D01*
X93103679Y-60083679D02*
X94488000Y-61468000D01*
X94488000Y-61468000D02*
X98298000Y-61468000D01*
X98298000Y-61468000D02*
X100584000Y-59182000D01*
X86106000Y-51308000D02*
X81788000Y-51308000D01*
X81788000Y-51308000D02*
X81534000Y-51054000D01*
M02*
